<svg width="22" height="22" viewBox="0 0 22 22" fill="none" xmlns="http://www.w3.org/2000/svg">
<path d="M12.0861 12.0001H0.996025C0.864853 12.0002 0.734947 11.9744 0.613785 11.9242C0.492622 11.8739 0.382591 11.8002 0.290024 11.7073C0.197456 11.6143 0.12418 11.504 0.0744095 11.3826C0.0246391 11.2613 -0.000644684 11.1313 1.52588e-05 11.0001C1.52588e-05 10.4476 0.450018 10.0001 0.995523 10.0001H12.0856L8.29309 6.20706C8.11093 6.01846 8.01014 5.76585 8.01242 5.50365C8.0147 5.24145 8.11987 4.99064 8.30527 4.80523C8.49069 4.61982 8.7415 4.51465 9.0037 4.51237C9.2659 4.51009 9.5185 4.61089 9.70711 4.79305L15.2072 10.2931C15.3946 10.4806 15.4999 10.7349 15.4999 11.0001C15.4999 11.2653 15.3946 11.5196 15.2072 11.7071L9.70711 17.2072C9.5185 17.3893 9.2659 17.4901 9.0037 17.4878C8.7415 17.4856 8.49069 17.3804 8.30527 17.195C8.11987 17.0096 8.0147 16.7588 8.01242 16.4966C8.01014 16.2344 8.11093 15.9818 8.29309 15.7932L12.0861 12.0001ZM9.99988 7.99442e-07C9.73466 7.99442e-07 9.48031 0.105359 9.29277 0.292897C9.10523 0.480435 8.99987 0.734791 8.99987 1.00001C8.99987 1.26523 9.10523 1.51959 9.29277 1.70712C9.48031 1.89466 9.73466 2.00002 9.99988 2.00002H19.4955C19.7755 2.00002 20 2.22452 20 2.50352V19.4967C20 19.7752 19.775 20.0002 19.4955 20.0002H9.99988C9.73466 20.0002 9.48031 20.1056 9.29277 20.2931C9.10523 20.4806 8.99987 20.735 8.99987 21.0002C8.99987 21.2654 9.10523 21.5198 9.29277 21.7073C9.48031 21.8949 9.73466 22.0002 9.99988 22.0002H19.4955C19.8243 22.0003 20.15 21.9357 20.4538 21.8099C20.7577 21.6842 21.0338 21.4998 21.2664 21.2673C21.499 21.0348 21.6835 20.7588 21.8093 20.455C21.9352 20.1512 22 19.8255 22 19.4967V2.50352C22.0001 2.17464 21.9354 1.84895 21.8096 1.54508C21.6838 1.24122 21.4993 0.965132 21.2667 0.732619C21.0341 0.500106 20.7579 0.315724 20.454 0.190015C20.1501 0.0643067 19.8244 -0.000262075 19.4955 7.99442e-07H9.99988Z" fill="#C9C9C9"/>
</svg>
