<svg width="40" height="30" viewBox="0 0 40 30" fill="none" xmlns="http://www.w3.org/2000/svg">
<path fill-rule="evenodd" clip-rule="evenodd" d="M39.3066 4.82635C38.8186 2.53643 37.0787 0.848492 34.9828 0.596501C30.023 0.000521761 25.0031 -0.00347778 20.0053 0.000522079C15.0075 -0.00147785 9.98565 0.000521761 5.02583 0.596501C2.9339 0.848492 1.19396 2.53643 0.705975 4.82635C0.00399969 8.08624 0 11.6441 0 15C0 18.3559 1.19205e-07 21.9138 0.695976 25.1736C1.18596 27.4616 2.9259 29.1515 5.01983 29.4035C9.97965 29.9995 14.9995 30.0035 19.9993 29.9995C24.9971 30.0015 30.017 29.9995 34.9748 29.4035C37.0687 29.1515 38.8086 27.4636 39.2986 25.1736C39.9966 21.9138 39.9986 18.3559 39.9986 15C39.9986 11.6441 40.0046 8.08624 39.3066 4.82635ZM15.9994 21.9998V8.00024L27.999 15.02L15.9994 21.9998Z" fill="white"/>
</svg>
