<svg width="22" height="22" viewBox="0 0 22 22" fill="none" xmlns="http://www.w3.org/2000/svg">
<path d="M4.49951e-07 2.50361C-0.000196743 2.17479 0.0644236 1.84915 0.190166 1.54533C0.315909 1.2415 0.500308 0.965436 0.732819 0.732926C0.96533 0.500415 1.24139 0.316016 1.54522 0.190273C1.84905 0.0645304 2.17468 -8.99318e-05 2.5035 0.000107261H19.4965C19.8253 -8.99318e-05 20.151 0.0645304 20.4548 0.190273C20.7586 0.316016 21.0347 0.500415 21.2672 0.732926C21.4997 0.965436 21.6841 1.2415 21.8098 1.54533C21.9356 1.84915 22.0002 2.17479 22 2.50361V19.4966C22.0002 19.8254 21.9356 20.1511 21.8098 20.4549C21.6841 20.7587 21.4997 21.0348 21.2672 21.2673C21.0347 21.4998 20.7586 21.6842 20.4548 21.8099C20.151 21.9357 19.8253 22.0003 19.4965 22.0001H2.5035C2.17468 22.0003 1.84905 21.9357 1.54522 21.8099C1.24139 21.6842 0.96533 21.4998 0.732819 21.2673C0.500308 21.0348 0.315909 20.7587 0.190166 20.4549C0.0644236 20.1511 -0.000196743 19.8254 4.49951e-07 19.4966V2.50361ZM2 2.50361V19.4966C2 19.7756 2.2245 20.0001 2.5035 20.0001H19.4965C19.7755 20.0001 20 19.7756 20 19.4966V2.50361C20 2.22461 19.7755 2.00011 19.4965 2.00011H2.5035C2.2245 2.00011 2 2.22461 2 2.50361ZM12 10.0001H15.5C15.7652 10.0001 16.0196 10.1055 16.2071 10.293C16.3946 10.4805 16.5 10.7349 16.5 11.0001C16.5 11.2653 16.3946 11.5197 16.2071 11.7072C16.0196 11.8947 15.7652 12.0001 15.5 12.0001H12V16.0001C12 16.2653 11.8946 16.5197 11.7071 16.7072C11.5196 16.8948 11.2652 17.0001 11 17.0001C10.7348 17.0001 10.4804 16.8948 10.2929 16.7072C10.1054 16.5197 10 16.2653 10 16.0001V12.0001H6C5.73478 12.0001 5.48043 11.8947 5.29289 11.7072C5.10536 11.5197 5 11.2653 5 11.0001C5 10.7349 5.10536 10.4805 5.29289 10.293C5.48043 10.1055 5.73478 10.0001 6 10.0001H10V6.00011C10 5.73489 10.1054 5.48054 10.2929 5.293C10.4804 5.10546 10.7348 5.00011 11 5.00011C11.2652 5.00011 11.5196 5.10546 11.7071 5.293C11.8946 5.48054 12 5.73489 12 6.00011V10.0001Z" fill="#C9C9C9"/>
</svg>
