<svg width="22" height="22" viewBox="0 0 22 22" fill="none" xmlns="http://www.w3.org/2000/svg">
<path d="M16.8966 19.0634C16.4699 17.0189 14.0055 15.4445 10.9999 15.4445C7.99439 15.4445 5.52994 17.0189 5.10327 19.0634M18.0711 3.92894C21.9763 7.83419 21.9763 14.1658 18.0711 18.0711C14.1658 21.9763 7.83416 21.9763 3.92894 18.0711C0.0236878 14.1658 0.0236878 7.83416 3.92894 3.92894C7.83419 0.0236878 14.1658 0.0236878 18.0711 3.92894ZM13.3569 6.42076C14.6587 7.72251 14.6587 9.83307 13.3569 11.1348C12.0552 12.4366 9.94464 12.4366 8.6429 11.1348C7.34115 9.83307 7.34115 7.72251 8.6429 6.42076C9.94464 5.11902 12.0552 5.11902 13.3569 6.42076Z" stroke="#C9C9C9" stroke-width="2" stroke-linecap="round" stroke-linejoin="round"/>
</svg>
