<svg width="58" height="34" viewBox="0 0 58 34" fill="none" xmlns="http://www.w3.org/2000/svg">
<rect width="58" height="34" rx="4" fill="#4CAF50"/>
<path fill-rule="evenodd" clip-rule="evenodd" d="M28.9978 8H29.0022C33.9646 8 38 12.0376 38 17C38 21.9624 33.9646 26 29.0022 26C27.1719 26 25.4743 25.4555 24.0511 24.5128L20.5918 25.6186L21.7134 22.2751C20.6345 20.7935 20 18.9688 20 17C20 12.0365 24.0354 8 28.9978 8ZM32.4729 21.9793C33.1602 21.8307 34.022 21.3223 34.2391 20.7091C34.4562 20.0949 34.4562 19.5718 34.3932 19.4604C34.3424 19.372 34.2221 19.3141 34.0425 19.2276C33.9958 19.2051 33.945 19.1807 33.8904 19.1532C33.626 19.0216 32.3401 18.386 32.0971 18.3016C31.8586 18.2116 31.6314 18.2431 31.4514 18.4974C31.4171 18.5453 31.383 18.5934 31.349 18.6411C31.1318 18.9465 30.9224 19.2411 30.7482 19.4289C30.5896 19.5976 30.3309 19.619 30.1137 19.529C30.0901 19.5191 30.063 19.5082 30.0326 19.4959C29.6888 19.3571 28.9263 19.0491 28.0032 18.2274C27.2247 17.5344 26.696 16.6715 26.543 16.4128C26.3928 16.1532 26.5224 16.001 26.6421 15.8603C26.6443 15.8577 26.6465 15.8551 26.6487 15.8525C26.726 15.757 26.8009 15.6774 26.8762 15.5975C26.9303 15.54 26.9847 15.4823 27.0402 15.4183C27.0485 15.4087 27.0565 15.3995 27.0643 15.3905C27.1823 15.2549 27.2525 15.1742 27.3316 15.0054C27.4216 14.831 27.3575 14.651 27.2934 14.5182C27.2493 14.4253 26.9767 13.764 26.7428 13.1964C26.6426 12.9534 26.5496 12.7277 26.4845 12.5709C26.3101 12.1535 26.1774 12.1378 25.913 12.1265C25.9049 12.1261 25.8967 12.1257 25.8884 12.1253C25.8049 12.121 25.7128 12.1164 25.6115 12.1164C25.2672 12.1164 24.9084 12.2176 24.6912 12.4392C24.6837 12.447 24.6758 12.455 24.6675 12.4634C24.3898 12.7459 23.771 13.3752 23.771 14.6296C23.771 15.8865 24.6628 17.1029 24.8278 17.3279C24.8323 17.3341 24.8363 17.3396 24.8397 17.3442C24.8497 17.3573 24.8684 17.3844 24.8956 17.4238C25.2325 17.9117 26.8736 20.2882 29.3206 21.302C31.3884 22.1593 32.0026 22.0794 32.4729 21.9793Z" fill="white"/>
</svg>
