<svg width="60" height="34" viewBox="0 0 60 34" fill="none" xmlns="http://www.w3.org/2000/svg">
<rect width="60" height="34.0005" rx="4" fill="#FD0202"/>
<path fill-rule="evenodd" clip-rule="evenodd" d="M39.654 11.4133C39.41 10.2683 38.54 9.42426 37.492 9.29826C35.012 9.00026 32.502 8.99826 30.003 9.00026C27.504 8.99926 24.993 9.00026 22.513 9.29826C21.467 9.42426 20.597 10.2683 20.353 11.4133C20.002 13.0433 20 15.322 20 17C20 18.678 20 20.9573 20.348 22.5873C20.593 23.7313 21.463 24.5763 22.51 24.7023C24.99 25.0003 27.5 25.0023 30 25.0003C32.499 25.0013 35.009 25.0003 37.488 24.7023C38.535 24.5763 39.405 23.7323 39.65 22.5873C39.999 20.9573 40 18.678 40 17C40 15.322 40.003 13.0433 39.654 11.4133ZM28 21V13.0003L34 17L28 21Z" fill="white"/>
</svg>
