<svg width="37" height="48" viewBox="0 0 37 48" fill="none" xmlns="http://www.w3.org/2000/svg">
<path d="M18.5278 6.92311C19.294 6.92311 19.9152 6.30319 19.9152 5.53849C19.9152 4.77378 19.294 4.15387 18.5278 4.15387C17.7615 4.15387 17.1402 4.77378 17.1402 5.53849C17.1402 6.30319 17.7615 6.92311 18.5278 6.92311Z" fill="url(#paint0_linear)"/>
<path d="M36.9999 11.0769C36.9999 9.03766 35.3434 7.38454 33.3 7.38454H28.1635C27.4783 6.62496 26.5981 6.04376 25.5869 5.75345C24.7351 5.50907 24.0795 4.85483 23.8345 4.00479C23.1679 1.69189 21.032 0 18.4999 0C15.9679 0 13.8321 1.69189 13.1656 4.00456C12.9203 4.85564 12.2631 5.50907 11.4102 5.75426C10.4001 6.0448 9.52079 6.62542 8.83618 7.38454H3.7C1.65644 7.38454 0 9.03766 0 11.0769V44.3077C0 46.3469 1.65644 48 3.7 48C12.1945 48 22.6345 48 33.3 48C35.3436 48 37 46.3469 37 44.3077C37 33.8216 36.9999 23.7804 36.9999 11.0769ZM9.25012 11.0472C9.26283 9.4242 10.3617 7.97727 11.9224 7.52842C13.392 7.10588 14.5213 5.97926 14.9434 4.51502C15.3964 2.94348 16.8588 1.84616 18.4999 1.84616C20.1411 1.84616 21.6035 2.94348 22.0563 4.51502C22.4785 5.98018 23.6072 7.10646 25.0754 7.52773C26.6499 7.97969 27.7498 9.4392 27.7498 11.0767V12.9229H9.25012V11.0472ZM33.3 46.1538C23.4193 46.1538 13.5547 46.1538 3.7 46.1538C2.67984 46.1538 1.85 45.3256 1.85 44.3077V11.0769C1.85 10.0589 2.67984 9.2307 3.7 9.2307H7.71704C7.51701 9.79516 7.40509 10.4011 7.40023 11.0327V14.7692H29.6V11.0769C29.6 10.429 29.4853 9.80866 29.2804 9.2307H33.3C34.32 9.2307 35.1499 10.0589 35.1499 11.0769C35.1499 16.3549 35.1498 41.1063 35.1501 44.3077C35.15 45.3256 34.3202 46.1538 33.3 46.1538Z" fill="url(#paint1_linear)"/>
<path d="M26.8251 19.3849C24.7818 19.3849 23.1251 21.0382 23.1251 23.0773C23.1251 25.1164 24.7818 26.7696 26.8251 26.7696C28.8684 26.7696 30.5251 25.1164 30.5251 23.0773C30.5251 21.0382 28.8684 19.3849 26.8251 19.3849ZM26.8251 24.9234C25.8051 24.9234 24.9751 24.0952 24.9751 23.0773C24.9751 22.0593 25.8051 21.2311 26.8251 21.2311C27.8452 21.2311 28.6751 22.0593 28.6751 23.0773C28.6751 24.0952 27.8452 24.9234 26.8251 24.9234Z" fill="url(#paint2_linear)"/>
<path d="M12.6785 25.9231L11.3707 24.6179L9.24965 26.7345L7.12851 24.6179L5.82068 25.9231L7.9417 28.0398L5.82068 30.1564L7.12851 31.4616L9.24965 29.345L11.3707 31.4616L12.6785 30.1564L10.5576 28.0398L12.6785 25.9231Z" fill="url(#paint3_linear)"/>
<path d="M18.5 29.5386H16.65V31.3848H18.5V29.5386Z" fill="url(#paint4_linear)"/>
<path d="M18.5 25.8463H16.65V27.6924H18.5V25.8463Z" fill="url(#paint5_linear)"/>
<path d="M17.5751 18.4619L13.8751 23.0773H16.6501V24.0003H18.5001V23.0773H21.2751L17.5751 18.4619Z" fill="url(#paint6_linear)"/>
<path d="M26.8251 28.6158L23.1251 33.2312H25.9001V33.5984C25.9001 36.4498 23.5757 38.7696 20.7181 38.7696H16.2052C17.6111 37.4856 18.5001 35.6459 18.5001 33.5984V33.2312H16.6501V33.5984C16.6501 36.002 14.9954 38.0166 12.7644 38.593C12.2931 37.0946 10.9069 36.0003 9.25012 36.0003C7.20679 36.0003 5.55012 37.6535 5.55012 39.6926C5.55012 41.7317 7.20679 43.3849 9.25012 43.3849C10.9721 43.3849 12.4066 42.2055 12.8192 40.6157H20.7181C24.5957 40.6157 27.7501 37.468 27.7501 33.5983V33.231H30.5251L26.8251 28.6158ZM9.25012 41.5389C8.23007 41.5389 7.40012 40.7107 7.40012 39.6927C7.40012 38.6748 8.23007 37.8466 9.25012 37.8466C10.2702 37.8466 11.1001 38.6748 11.1001 39.6927C11.1001 40.7107 10.2702 41.5389 9.25012 41.5389Z" fill="url(#paint7_linear)"/>
<defs>
<linearGradient id="paint0_linear" x1="37" y1="48" x2="4.49451e-07" y2="-3.46452e-07" gradientUnits="userSpaceOnUse">
<stop stop-color="#6CB4DB"/>
<stop offset="0.0001" stop-color="#BDBAE7"/>
<stop offset="0.359375" stop-color="#7CB5DD"/>
<stop offset="1" stop-color="#F300E2"/>
</linearGradient>
<linearGradient id="paint1_linear" x1="37" y1="48" x2="4.49451e-07" y2="-3.46452e-07" gradientUnits="userSpaceOnUse">
<stop stop-color="#6CB4DB"/>
<stop offset="0.0001" stop-color="#BDBAE7"/>
<stop offset="0.359375" stop-color="#7CB5DD"/>
<stop offset="1" stop-color="#F300E2"/>
</linearGradient>
<linearGradient id="paint2_linear" x1="37" y1="48" x2="4.49451e-07" y2="-3.46452e-07" gradientUnits="userSpaceOnUse">
<stop stop-color="#6CB4DB"/>
<stop offset="0.0001" stop-color="#BDBAE7"/>
<stop offset="0.359375" stop-color="#7CB5DD"/>
<stop offset="1" stop-color="#F300E2"/>
</linearGradient>
<linearGradient id="paint3_linear" x1="37" y1="48" x2="4.49451e-07" y2="-3.46452e-07" gradientUnits="userSpaceOnUse">
<stop stop-color="#6CB4DB"/>
<stop offset="0.0001" stop-color="#BDBAE7"/>
<stop offset="0.359375" stop-color="#7CB5DD"/>
<stop offset="1" stop-color="#F300E2"/>
</linearGradient>
<linearGradient id="paint4_linear" x1="37" y1="48" x2="4.49451e-07" y2="-3.46452e-07" gradientUnits="userSpaceOnUse">
<stop stop-color="#6CB4DB"/>
<stop offset="0.0001" stop-color="#BDBAE7"/>
<stop offset="0.359375" stop-color="#7CB5DD"/>
<stop offset="1" stop-color="#F300E2"/>
</linearGradient>
<linearGradient id="paint5_linear" x1="37" y1="48" x2="4.49451e-07" y2="-3.46452e-07" gradientUnits="userSpaceOnUse">
<stop stop-color="#6CB4DB"/>
<stop offset="0.0001" stop-color="#BDBAE7"/>
<stop offset="0.359375" stop-color="#7CB5DD"/>
<stop offset="1" stop-color="#F300E2"/>
</linearGradient>
<linearGradient id="paint6_linear" x1="37" y1="48" x2="4.49451e-07" y2="-3.46452e-07" gradientUnits="userSpaceOnUse">
<stop stop-color="#6CB4DB"/>
<stop offset="0.0001" stop-color="#BDBAE7"/>
<stop offset="0.359375" stop-color="#7CB5DD"/>
<stop offset="1" stop-color="#F300E2"/>
</linearGradient>
<linearGradient id="paint7_linear" x1="37" y1="48" x2="4.49451e-07" y2="-3.46452e-07" gradientUnits="userSpaceOnUse">
<stop stop-color="#6CB4DB"/>
<stop offset="0.0001" stop-color="#BDBAE7"/>
<stop offset="0.359375" stop-color="#7CB5DD"/>
<stop offset="1" stop-color="#F300E2"/>
</linearGradient>
</defs>
</svg>
