<svg width="37" height="48" viewBox="0 0 37 48" fill="none" xmlns="http://www.w3.org/2000/svg">
<path d="M29.6 27.6924H22.2V29.5385H29.6V27.6924Z" fill="url(#paint0_linear)"/>
<path d="M29.6 33.2309H22.2V35.077H29.6V33.2309Z" fill="url(#paint1_linear)"/>
<path d="M18.5278 6.92309C19.294 6.92309 19.9153 6.30318 19.9153 5.53848C19.9153 4.77377 19.294 4.15386 18.5278 4.15386C17.7615 4.15386 17.1403 4.77377 17.1403 5.53848C17.1403 6.30318 17.7615 6.92309 18.5278 6.92309Z" fill="url(#paint2_linear)"/>
<path d="M36.9998 11.077C36.9998 9.03775 35.3433 7.38463 33.2999 7.38463H28.1634C27.4782 6.62505 26.598 6.04386 25.5868 5.75355C24.735 5.50905 24.0794 4.85482 23.8344 4.00478C23.1679 1.692 21.0318 0 18.4999 0C15.9679 0 13.8321 1.69189 13.1656 4.00466C12.9203 4.85574 12.2631 5.50917 11.4103 5.75436C10.4 6.0449 9.52079 6.62552 8.83629 7.38463H3.7C1.65644 7.38463 0 9.03775 0 11.077V44.3077C0 46.3469 1.65644 48 3.7 48C12.1945 48 22.6345 48 33.3 48C35.3436 48 37 46.3469 37 44.3077C37 33.8216 36.9999 23.7805 36.9998 11.077ZM9.25 11.0472C9.26272 9.42418 10.3616 7.97725 11.9223 7.5284C13.3919 7.10575 14.5213 5.97925 14.9434 4.5149C15.3963 2.9437 16.8587 1.84616 18.4999 1.84616C20.1411 1.84616 21.6035 2.9437 22.0563 4.51513C22.4785 5.98028 23.6072 7.10655 25.0754 7.52783C26.6499 7.97967 27.7498 9.43918 27.7498 11.0768V12.923H9.25V11.0472ZM33.3 46.1538C23.4193 46.1538 13.5547 46.1538 3.7 46.1538C2.67984 46.1538 1.85 45.3256 1.85 44.3077V11.077C1.85 10.059 2.67984 9.23079 3.7 9.23079H7.71704C7.51701 9.79525 7.40532 10.4011 7.40035 11.0328V14.7693H29.6V11.077C29.6 10.4291 29.4853 9.80875 29.2804 9.23079H33.3C34.32 9.23079 35.1499 10.059 35.1499 11.077C35.1499 16.355 35.1498 41.1063 35.1501 44.3077C35.15 45.3257 34.3202 46.1538 33.3 46.1538Z" fill="url(#paint3_linear)"/>
<path d="M22.179 20.2025L14.3319 28.0331L12.35 26.0552L11.04 27.3626L14.33 30.6459L16.6499 28.3309V33.2307H9.24988V24.0001H14.7999L16.6499 22.1539H7.39988L7.39977 35.077H18.4999V26.4848L23.4871 21.508L22.179 20.2025Z" fill="url(#paint4_linear)"/>
<defs>
<linearGradient id="paint0_linear" x1="0" y1="0" x2="37" y2="48" gradientUnits="userSpaceOnUse">
<stop stop-color="#398293"/>
<stop offset="0.473958" stop-color="#5A93A4"/>
<stop offset="1" stop-color="#37C2DB"/>
</linearGradient>
<linearGradient id="paint1_linear" x1="0" y1="0" x2="37" y2="48" gradientUnits="userSpaceOnUse">
<stop stop-color="#398293"/>
<stop offset="0.473958" stop-color="#5A93A4"/>
<stop offset="1" stop-color="#37C2DB"/>
</linearGradient>
<linearGradient id="paint2_linear" x1="0" y1="0" x2="37" y2="48" gradientUnits="userSpaceOnUse">
<stop stop-color="#398293"/>
<stop offset="0.473958" stop-color="#5A93A4"/>
<stop offset="1" stop-color="#37C2DB"/>
</linearGradient>
<linearGradient id="paint3_linear" x1="0" y1="0" x2="37" y2="48" gradientUnits="userSpaceOnUse">
<stop stop-color="#398293"/>
<stop offset="0.473958" stop-color="#5A93A4"/>
<stop offset="1" stop-color="#37C2DB"/>
</linearGradient>
<linearGradient id="paint4_linear" x1="0" y1="0" x2="37" y2="48" gradientUnits="userSpaceOnUse">
<stop stop-color="#398293"/>
<stop offset="0.473958" stop-color="#5A93A4"/>
<stop offset="1" stop-color="#37C2DB"/>
</linearGradient>
</defs>
</svg>
