<svg width="37" height="48" viewBox="0 0 37 48" fill="none" xmlns="http://www.w3.org/2000/svg">
<path d="M25.6957 23.2146L24.3875 21.9091L18.5009 27.7836L12.6142 21.9091L11.3062 23.2146L17.1927 29.0889L11.3062 34.9636L12.6142 36.2689L18.5009 30.3944L24.3875 36.2689L25.6957 34.9636L19.8091 29.0889L25.6957 23.2146Z" fill="#FF0E24"/>
<path d="M18.5278 6.92311C19.294 6.92311 19.9152 6.30319 19.9152 5.53849C19.9152 4.77378 19.294 4.15387 18.5278 4.15387C17.7615 4.15387 17.1402 4.77378 17.1402 5.53849C17.1402 6.30319 17.7615 6.92311 18.5278 6.92311Z" fill="#FF0E24"/>
<path d="M36.9999 11.0769C36.9999 9.03766 35.3434 7.38454 33.3 7.38454H28.1635C27.4783 6.62496 26.5981 6.04376 25.5869 5.75345C24.7351 5.50907 24.0795 4.85483 23.8345 4.00479C23.1679 1.69189 21.032 0 18.4999 0C15.9679 0 13.8321 1.69189 13.1656 4.00456C12.9203 4.85564 12.2631 5.50907 11.4102 5.75426C10.4001 6.0448 9.52079 6.62542 8.83618 7.38454H3.7C1.65644 7.38454 0 9.03766 0 11.0769V44.3077C0 46.3469 1.65644 48 3.7 48C12.1945 48 22.6345 48 33.3 48C35.3436 48 37 46.3469 37 44.3077C37 33.8216 36.9999 23.7804 36.9999 11.0769ZM9.25012 11.0472C9.26283 9.4242 10.3617 7.97727 11.9224 7.52842C13.392 7.10588 14.5213 5.97926 14.9434 4.51502C15.3964 2.94348 16.8588 1.84616 18.4999 1.84616C20.1411 1.84616 21.6035 2.94348 22.0563 4.51502C22.4785 5.98018 23.6072 7.10646 25.0754 7.52773C26.6499 7.97969 27.7498 9.4392 27.7498 11.0767V12.9229H9.25012V11.0472ZM33.3 46.1538C23.4193 46.1538 13.5547 46.1538 3.7 46.1538C2.67984 46.1538 1.85 45.3256 1.85 44.3077V11.0769C1.85 10.0589 2.67984 9.2307 3.7 9.2307H7.71704C7.51701 9.79516 7.40509 10.4011 7.40023 11.0327V14.7692H29.6V11.0769C29.6 10.429 29.4853 9.80866 29.2804 9.2307H33.3C34.32 9.2307 35.1499 10.0589 35.1499 11.0769C35.1499 16.3549 35.1498 41.1063 35.1501 44.3077C35.15 45.3256 34.3202 46.1538 33.3 46.1538Z" fill="#FF0E24"/>
</svg>
