<svg width="37" height="48" viewBox="0 0 37 48" fill="none" xmlns="http://www.w3.org/2000/svg">
<path d="M10.175 40.6156C10.6859 40.6156 11.1 40.2023 11.1 39.6925C11.1 39.1827 10.6859 38.7694 10.175 38.7694C9.66414 38.7694 9.25 39.1827 9.25 39.6925C9.25 40.2023 9.66414 40.6156 10.175 40.6156Z" fill="url(#paint0_linear)"/>
<path d="M21.275 40.6156C21.7859 40.6156 22.2 40.2023 22.2 39.6925C22.2 39.1827 21.7859 38.7694 21.275 38.7694C20.7641 38.7694 20.35 39.1827 20.35 39.6925C20.35 40.2023 20.7641 40.6156 21.275 40.6156Z" fill="url(#paint1_linear)"/>
<path d="M26.825 40.6156C27.3359 40.6156 27.75 40.2023 27.75 39.6925C27.75 39.1827 27.3359 38.7694 26.825 38.7694C26.3141 38.7694 25.9 39.1827 25.9 39.6925C25.9 40.2023 26.3141 40.6156 26.825 40.6156Z" fill="url(#paint2_linear)"/>
<path d="M15.725 40.6156C16.2359 40.6156 16.65 40.2023 16.65 39.6925C16.65 39.1827 16.2359 38.7694 15.725 38.7694C15.2141 38.7694 14.8 39.1827 14.8 39.6925C14.8 40.2023 15.2141 40.6156 15.725 40.6156Z" fill="url(#paint3_linear)"/>
<path d="M22.2 18.4614C20.8831 18.4614 19.6351 18.7466 18.5 19.2437C17.3649 18.7465 16.1169 18.4614 14.8 18.4614C9.69955 18.4614 5.55 22.6023 5.55 27.6922C5.55 32.7821 9.69955 36.923 14.8 36.923C16.1169 36.923 17.3649 36.6378 18.5 36.1407C19.6351 36.6379 20.8831 36.923 22.2 36.923C27.3004 36.923 31.45 32.7821 31.45 27.6922C31.45 22.6023 27.3004 18.4614 22.2 18.4614ZM18.5 21.3317C19.2837 21.7868 19.9673 22.3768 20.534 23.0768H16.466C17.0328 22.3766 17.7164 21.7868 18.5 21.3317ZM14.8933 26.7691C14.9746 26.1264 15.1129 25.5034 15.3488 24.923H21.6512C21.8871 25.5034 22.0254 26.1264 22.1067 26.7691H14.8933ZM22.1068 28.6153C22.0255 29.258 21.8872 29.8811 21.6514 30.4615H15.3489C15.113 29.8811 14.9747 29.258 14.8934 28.6153H22.1068ZM14.8 35.0769C10.7131 35.0769 7.4 31.7706 7.4 27.6922C7.4 23.6138 10.7131 20.3076 14.8 20.3076C15.3733 20.3076 15.9254 20.3871 16.4611 20.5102C14.3385 22.2029 12.95 24.7761 12.95 27.6922C12.95 30.6083 14.3387 33.1815 16.4611 34.8742C15.9254 34.9975 15.3734 35.0769 14.8 35.0769ZM18.5 34.0526C17.7163 33.5975 17.0327 33.0077 16.466 32.3076H20.534C19.9673 33.0078 19.2837 33.5975 18.5 34.0526ZM22.2 35.0769C21.6267 35.0769 21.0746 34.9974 20.5389 34.8742C22.6615 33.1814 24.05 30.6082 24.05 27.6922C24.05 24.7762 22.6613 22.2029 20.5389 20.5102C21.0747 20.3871 21.6267 20.3076 22.2 20.3076C26.2869 20.3076 29.6 23.6138 29.6 27.6922C29.6 31.7706 26.287 35.0769 22.2 35.0769Z" fill="url(#paint4_linear)"/>
<path d="M18.5278 6.92311C19.294 6.92311 19.9152 6.30319 19.9152 5.53849C19.9152 4.77378 19.294 4.15387 18.5278 4.15387C17.7615 4.15387 17.1402 4.77378 17.1402 5.53849C17.1402 6.30319 17.7615 6.92311 18.5278 6.92311Z" fill="url(#paint5_linear)"/>
<path d="M36.9999 11.0769C36.9999 9.03766 35.3434 7.38454 33.3 7.38454H28.1635C27.4783 6.62496 26.5981 6.04376 25.5869 5.75345C24.735 5.50907 24.0794 4.85483 23.8345 4.00479C23.1679 1.69201 21.032 0 18.4999 0C15.9679 0 13.8321 1.69189 13.1656 4.00456C12.9203 4.85564 12.2631 5.50907 11.4102 5.75437C10.4001 6.04491 9.52079 6.62553 8.83618 7.38454H3.7C1.65644 7.38454 0 9.03766 0 11.0769V44.3077C0 46.3469 1.65644 48 3.7 48C12.1945 48 22.6345 48 33.3 48C35.3436 48 37 46.3469 37 44.3077C37 33.8216 36.9999 23.7804 36.9999 11.0769ZM9.25012 11.0472C9.26283 9.4242 10.3617 7.97727 11.9224 7.52842C13.392 7.10588 14.5213 5.97926 14.9434 4.51502C15.3964 2.94348 16.8588 1.84616 18.4999 1.84616C20.1411 1.84616 21.6035 2.94348 22.0563 4.51502C22.4785 5.98018 23.6072 7.10646 25.0752 7.52773C26.6499 7.97969 27.7498 9.4392 27.7498 11.0767V12.9229H9.25012V11.0472ZM33.3 46.1538C23.4193 46.1538 13.5547 46.1538 3.7 46.1538C2.67984 46.1538 1.85 45.3256 1.85 44.3077V11.0769C1.85 10.0589 2.67984 9.2307 3.7 9.2307H7.71704C7.51701 9.79516 7.40509 10.4011 7.40023 11.0327V14.7692H29.6V11.0769C29.6 10.429 29.4853 9.80866 29.2804 9.2307H33.3C34.32 9.2307 35.1499 10.0589 35.1499 11.0769C35.1499 16.3549 35.1498 41.1063 35.1501 44.3077C35.15 45.3256 34.3202 46.1538 33.3 46.1538Z" fill="url(#paint6_linear)"/>
<defs>
<linearGradient id="paint0_linear" x1="0.500001" y1="0.5" x2="37" y2="48" gradientUnits="userSpaceOnUse">
<stop stop-color="#FF9900"/>
<stop offset="1" stop-color="#EBEF00"/>
</linearGradient>
<linearGradient id="paint1_linear" x1="0.500001" y1="0.5" x2="37" y2="48" gradientUnits="userSpaceOnUse">
<stop stop-color="#FF9900"/>
<stop offset="1" stop-color="#EBEF00"/>
</linearGradient>
<linearGradient id="paint2_linear" x1="0.500001" y1="0.5" x2="37" y2="48" gradientUnits="userSpaceOnUse">
<stop stop-color="#FF9900"/>
<stop offset="1" stop-color="#EBEF00"/>
</linearGradient>
<linearGradient id="paint3_linear" x1="0.500001" y1="0.5" x2="37" y2="48" gradientUnits="userSpaceOnUse">
<stop stop-color="#FF9900"/>
<stop offset="1" stop-color="#EBEF00"/>
</linearGradient>
<linearGradient id="paint4_linear" x1="0.500001" y1="0.5" x2="37" y2="48" gradientUnits="userSpaceOnUse">
<stop stop-color="#FF9900"/>
<stop offset="1" stop-color="#EBEF00"/>
</linearGradient>
<linearGradient id="paint5_linear" x1="0.500001" y1="0.5" x2="37" y2="48" gradientUnits="userSpaceOnUse">
<stop stop-color="#FF9900"/>
<stop offset="1" stop-color="#EBEF00"/>
</linearGradient>
<linearGradient id="paint6_linear" x1="0.500001" y1="0.5" x2="37" y2="48" gradientUnits="userSpaceOnUse">
<stop stop-color="#FF9900"/>
<stop offset="1" stop-color="#EBEF00"/>
</linearGradient>
</defs>
</svg>
