<svg width="44" height="48" viewBox="0 0 44 48" fill="none" xmlns="http://www.w3.org/2000/svg">
<path d="M28.1745 21.3334H7.04363V23.1112H28.1745V21.3334Z" fill="url(#paint0_linear)"/>
<path d="M7.04363 26.6665V28.4443H24.181L25.9419 26.6665H7.04363Z" fill="url(#paint1_linear)"/>
<path d="M7.04363 31.9999V33.7777H18.898L20.659 31.9999H7.04363Z" fill="url(#paint2_linear)"/>
<path d="M15.8482 37.3335H7.04363V39.1113H15.8482V37.3335Z" fill="url(#paint3_linear)"/>
<path d="M43.4846 19.0119L40.9943 16.4979C40.3069 15.804 39.1913 15.8039 38.504 16.4977C32.1486 22.9141 25.7762 29.3476 19.3701 35.8149C19.3701 38.8913 19.3701 38.2248 19.3701 40.8885C23.6093 40.8885 22.5369 40.8905 24.3133 40.881C25.2324 39.9531 29.2886 35.8581 33.4574 31.6495V44.4444C33.4574 45.4262 32.669 46.2222 31.6964 46.2222H3.52192C2.54935 46.2222 1.76102 45.4262 1.76102 44.4444V12.4443C1.76102 11.4624 2.54935 10.6665 3.52192 10.6665H7.04407V14.2222H28.1746V10.6666L31.6964 10.6665C32.669 10.6665 33.4574 11.4624 33.4574 12.4443V19.0472L35.2183 17.2571V12.4443C35.2183 10.4805 33.6415 8.88871 31.6964 8.88871H27.8704C27.305 7.27515 25.995 6.01658 24.3548 5.54047C23.544 5.30514 22.92 4.67513 22.6868 3.85657C22.0523 1.62923 20.0192 0 17.6091 0C15.1991 0 13.1661 1.62923 12.5317 3.85624C12.2982 4.6758 11.6726 5.30502 10.8609 5.54114C9.22143 6.01814 7.91033 7.27537 7.34552 8.88871H3.52181C1.57678 8.88871 0 10.4805 0 12.4443V44.4444C0 46.4081 1.57678 48 3.52181 48H31.6963C33.6414 48 35.2181 46.4081 35.2181 44.4444V29.8718C39.004 26.0498 42.53 22.4899 43.4845 21.5261C44.1718 20.8321 44.1718 19.7058 43.4846 19.0119ZM8.80476 10.638C8.81686 9.07515 9.86284 7.68181 11.3484 7.24959C12.7472 6.8427 13.8222 5.7578 14.2239 4.3478C14.655 2.83446 16.047 1.77779 17.6091 1.77779C19.1712 1.77779 20.5632 2.83446 20.9942 4.3478C21.3961 5.75869 22.4704 6.84325 23.8679 7.24892C25.3666 7.68426 26.4135 9.0896 26.4135 10.6666V12.4444H8.80476V10.638ZM23.5797 39.1074C23.123 39.11 22.936 39.1107 22.3042 39.111L21.1309 37.9264V36.5514C21.5674 36.1107 21.8693 35.8059 22.3171 35.3538L24.8073 37.868L23.5797 39.1074ZM26.0524 36.6109L23.5622 34.0968L34.7686 22.7831L37.2588 25.2973L26.0524 36.6109ZM38.5039 24.0401L36.0136 21.526L37.2588 20.2689L39.7492 22.783L38.5039 24.0401ZM40.9943 21.5261L38.5039 19.0119L39.7491 17.7549L42.2394 20.269L40.9943 21.5261Z" fill="url(#paint4_linear)"/>
<path d="M17.6355 6.6667C18.3649 6.6667 18.9562 6.06974 18.9562 5.33336C18.9562 4.59697 18.3649 4.00002 17.6355 4.00002C16.9061 4.00002 16.3148 4.59697 16.3148 5.33336C16.3148 6.06974 16.9061 6.6667 17.6355 6.6667Z" fill="url(#paint5_linear)"/>
<defs>
<linearGradient id="paint0_linear" x1="0" y1="0" x2="46.9506" y2="3.49394" gradientUnits="userSpaceOnUse">
<stop stop-color="#0B6E8E"/>
<stop offset="0.572917" stop-color="#04BC94"/>
<stop offset="1" stop-color="#01FEB5"/>
</linearGradient>
<linearGradient id="paint1_linear" x1="0" y1="0" x2="46.9506" y2="3.49394" gradientUnits="userSpaceOnUse">
<stop stop-color="#0B6E8E"/>
<stop offset="0.572917" stop-color="#04BC94"/>
<stop offset="1" stop-color="#01FEB5"/>
</linearGradient>
<linearGradient id="paint2_linear" x1="0" y1="0" x2="46.9506" y2="3.49394" gradientUnits="userSpaceOnUse">
<stop stop-color="#0B6E8E"/>
<stop offset="0.572917" stop-color="#04BC94"/>
<stop offset="1" stop-color="#01FEB5"/>
</linearGradient>
<linearGradient id="paint3_linear" x1="0" y1="0" x2="46.9506" y2="3.49394" gradientUnits="userSpaceOnUse">
<stop stop-color="#0B6E8E"/>
<stop offset="0.572917" stop-color="#04BC94"/>
<stop offset="1" stop-color="#01FEB5"/>
</linearGradient>
<linearGradient id="paint4_linear" x1="0" y1="0" x2="46.9506" y2="3.49394" gradientUnits="userSpaceOnUse">
<stop stop-color="#0B6E8E"/>
<stop offset="0.572917" stop-color="#04BC94"/>
<stop offset="1" stop-color="#01FEB5"/>
</linearGradient>
<linearGradient id="paint5_linear" x1="0" y1="0" x2="46.9506" y2="3.49394" gradientUnits="userSpaceOnUse">
<stop stop-color="#0B6E8E"/>
<stop offset="0.572917" stop-color="#04BC94"/>
<stop offset="1" stop-color="#01FEB5"/>
</linearGradient>
</defs>
</svg>
