<svg width="42" height="48" viewBox="0 0 42 48" fill="none" xmlns="http://www.w3.org/2000/svg">
<path d="M17.5262 6.63196C18.2511 6.63196 18.8387 6.03811 18.8387 5.30557C18.8387 4.57302 18.2511 3.97917 17.5262 3.97917C16.8014 3.97917 16.2137 4.57302 16.2137 5.30557C16.2137 6.03811 16.8014 6.63196 17.5262 6.63196Z" fill="url(#paint0_linear)"/>
<path d="M28 17.6852H7V19.4537H28V17.6852Z" fill="url(#paint1_linear)"/>
<path d="M17.5 33.6019H7V35.3704H17.5V33.6019Z" fill="url(#paint2_linear)"/>
<path d="M36.6971 31.8337C36.6971 34.759 34.3418 37.1388 31.4471 37.1388V38.9074C35.313 38.9074 38.4471 35.7404 38.4471 31.8337H36.6971Z" fill="url(#paint3_linear)"/>
<path d="M7 28.296V30.0645H19.3898C19.4759 29.4608 19.5966 28.8686 19.7659 28.296H7Z" fill="url(#paint4_linear)"/>
<path d="M7 22.9905V24.759H21.4613C21.9011 24.1236 22.3961 23.5312 22.943 22.9905H7Z" fill="url(#paint5_linear)"/>
<path d="M31.5 21.2219C25.701 21.2219 21 25.9727 21 31.8331C21 33.7836 21.5298 35.6054 22.4385 37.1759L15.9738 43.7332C15.834 43.8747 15.7421 44.0426 15.6597 44.2127C11.606 44.2127 7.54819 44.2128 3.49989 44.2128C2.53488 44.2128 1.74989 43.4194 1.74989 42.4443V10.611C1.74989 9.6359 2.53488 8.8425 3.49989 8.8425H7.2998C7.11058 9.38322 7.0047 9.96363 7.00011 10.5687V14.1481H28V10.611C28 9.99038 27.8915 9.39616 27.6977 8.8425H31.5C32.4649 8.8425 33.2499 9.6359 33.2499 10.611C33.2499 12.188 33.2499 15.5803 33.2499 19.5946C33.8474 19.6814 34.4333 19.8037 35 19.9747C35 16.9972 34.9999 13.9027 34.9999 10.6109C34.9999 8.65747 33.433 7.07387 31.5 7.07387H26.6411C25.993 6.34623 25.1604 5.78948 24.2038 5.51138C23.398 5.27727 22.7779 4.65055 22.5461 3.83626C21.9157 1.62074 19.8951 0 17.5 0C15.1049 0 13.0845 1.62074 12.4541 3.83614C12.222 4.65143 11.6003 5.27738 10.7936 5.51226C9.83806 5.79058 9.00627 6.34678 8.35866 7.07398H3.5C1.56691 7.07398 0 8.65758 0 10.611V42.4443C0 44.3977 1.56691 45.9813 3.5 45.9813C7.25255 45.9813 11.4203 45.9813 15.8102 45.9813C15.8682 46.065 15.9029 46.1597 15.9771 46.2345L17.2163 47.4836C17.5579 47.8281 18.005 48 18.4521 48C18.9008 48 19.3491 47.8269 19.6909 47.4806L21.17 45.9815C24.5476 45.9815 28.0026 45.9815 31.5 45.9815C33.4331 45.9815 35 44.3979 35 42.4444C35 42.2379 35 42.033 35 41.8275C39.0755 40.3694 42 36.4514 42 31.8332C42 25.9727 37.2991 21.2219 31.5 21.2219ZM8.75011 10.5826C8.76214 9.02786 9.80164 7.64178 11.278 7.21181C12.6681 6.80704 13.7364 5.7278 14.1356 4.32514C14.5642 2.81969 15.9475 1.76852 17.5 1.76852C19.0525 1.76852 20.4358 2.81969 20.8642 4.32514C21.2636 5.72868 22.3312 6.80759 23.72 7.21115C25.2095 7.6441 26.2499 9.04223 26.2499 10.6109V12.3794H8.75011V10.5826ZM18.4521 46.2315L17.214 44.981L23.4558 38.6474C23.8315 39.0999 24.2459 39.5176 24.6904 39.9011L18.4521 46.2315ZM33.25 42.4443C33.25 43.4194 32.465 44.2128 31.5 44.2128C28.6343 44.2128 25.7763 44.2128 22.9149 44.2128L26.1391 40.9448C27.7097 41.8908 29.5388 42.4442 31.5 42.4442C32.0976 42.4442 32.6797 42.3821 33.25 42.2851C33.25 42.3358 33.25 42.403 33.25 42.4443ZM31.5 40.6757C26.6753 40.6757 22.75 36.7089 22.75 31.8331C22.75 26.9572 26.6753 22.9905 31.5 22.9905C36.3247 22.9905 40.25 26.9572 40.25 31.8331C40.25 36.7089 36.3247 40.6757 31.5 40.6757Z" fill="url(#paint6_linear)"/>
<defs>
<linearGradient id="paint0_linear" x1="-7.16032e-07" y1="-5" x2="42" y2="48" gradientUnits="userSpaceOnUse">
<stop stop-color="#FAAD4E"/>
<stop offset="1" stop-color="#F26C5E"/>
</linearGradient>
<linearGradient id="paint1_linear" x1="-7.16032e-07" y1="-5" x2="42" y2="48" gradientUnits="userSpaceOnUse">
<stop stop-color="#FAAD4E"/>
<stop offset="1" stop-color="#F26C5E"/>
</linearGradient>
<linearGradient id="paint2_linear" x1="-7.16032e-07" y1="-5" x2="42" y2="48" gradientUnits="userSpaceOnUse">
<stop stop-color="#FAAD4E"/>
<stop offset="1" stop-color="#F26C5E"/>
</linearGradient>
<linearGradient id="paint3_linear" x1="-7.16032e-07" y1="-5" x2="42" y2="48" gradientUnits="userSpaceOnUse">
<stop stop-color="#FAAD4E"/>
<stop offset="1" stop-color="#F26C5E"/>
</linearGradient>
<linearGradient id="paint4_linear" x1="-7.16032e-07" y1="-5" x2="42" y2="48" gradientUnits="userSpaceOnUse">
<stop stop-color="#FAAD4E"/>
<stop offset="1" stop-color="#F26C5E"/>
</linearGradient>
<linearGradient id="paint5_linear" x1="-7.16032e-07" y1="-5" x2="42" y2="48" gradientUnits="userSpaceOnUse">
<stop stop-color="#FAAD4E"/>
<stop offset="1" stop-color="#F26C5E"/>
</linearGradient>
<linearGradient id="paint6_linear" x1="-7.16032e-07" y1="-5" x2="42" y2="48" gradientUnits="userSpaceOnUse">
<stop stop-color="#FAAD4E"/>
<stop offset="1" stop-color="#F26C5E"/>
</linearGradient>
</defs>
</svg>
