<svg width="20" height="20" viewBox="0 0 20 20" fill="none" xmlns="http://www.w3.org/2000/svg">
<path fill-rule="evenodd" clip-rule="evenodd" d="M5 0H15C16.3261 0 17.5979 0.526784 18.5355 1.46447C19.4732 2.40215 20 3.67392 20 5V15C20 16.3261 19.4732 17.5979 18.5355 18.5355C17.5979 19.4732 16.3261 20 15 20H5C3.67392 20 2.40215 19.4732 1.46447 18.5355C0.526784 17.5979 0 16.3261 0 15V5C0 3.67392 0.526784 2.40215 1.46447 1.46447C2.40215 0.526784 3.67392 0 5 0ZM10 15.5556C11.4734 15.5556 12.8865 14.9702 13.9284 13.9284C14.9702 12.8865 15.5556 11.4734 15.5556 10C15.5556 8.52658 14.9702 7.1135 13.9284 6.07163C12.8865 5.02976 11.4734 4.44444 10 4.44444C8.52658 4.44444 7.1135 5.02976 6.07163 6.07163C5.02976 7.1135 4.44444 8.52658 4.44444 10C4.44444 11.4734 5.02976 12.8865 6.07163 13.9284C7.1135 14.9702 8.52658 15.5556 10 15.5556ZM10 13.3333C9.11595 13.3333 8.2681 12.9821 7.64298 12.357C7.01786 11.7319 6.66667 10.8841 6.66667 10C6.66667 9.11595 7.01786 8.2681 7.64298 7.64298C8.2681 7.01786 9.11595 6.66667 10 6.66667C10.8841 6.66667 11.7319 7.01786 12.357 7.64298C12.9821 8.2681 13.3333 9.11595 13.3333 10C13.3333 10.8841 12.9821 11.7319 12.357 12.357C11.7319 12.9821 10.8841 13.3333 10 13.3333ZM15.5556 4.44444C15.8502 4.44444 16.1329 4.32738 16.3412 4.11901C16.5496 3.91063 16.6667 3.62802 16.6667 3.33333C16.6667 3.03865 16.5496 2.75603 16.3412 2.54766C16.1329 2.33929 15.8502 2.22222 15.5556 2.22222C15.2609 2.22222 14.9783 2.33929 14.7699 2.54766C14.5615 2.75603 14.4444 3.03865 14.4444 3.33333C14.4444 3.62802 14.5615 3.91063 14.7699 4.11901C14.9783 4.32738 15.2609 4.44444 15.5556 4.44444Z" fill="url(#paint0_linear)"/>
<defs>
<linearGradient id="paint0_linear" x1="0" y1="0" x2="20" y2="20" gradientUnits="userSpaceOnUse">
<stop stop-color="#BBBBBB"/>
<stop offset="0.0001" stop-color="#555CD5"/>
<stop offset="1" stop-color="#E53470"/>
</linearGradient>
</defs>
</svg>
