<svg width="22" height="22" viewBox="0 0 22 22" fill="none" xmlns="http://www.w3.org/2000/svg">
<path d="M7.79556 14.5411C3.84667 15.0611 1 15.9556 1 17.6667C1 19.8144 5.47667 21 11 21C16.5233 21 21 19.8144 21 17.6667C21 15.9556 18.1533 15.0611 14.2044 14.5411M17.6667 7.48111C17.6667 3.90222 14.6822 1 11 1C7.31778 1 4.33333 3.90222 4.33333 7.48111C4.33333 12.3422 11 17.6667 11 17.6667C11 17.6667 17.6667 12.3422 17.6667 7.48111ZM12.5713 6.09532C13.4392 6.96315 13.4392 8.37019 12.5713 9.23802C11.7035 10.1059 10.2965 10.1059 9.42863 9.23802C8.5608 8.37019 8.5608 6.96316 9.42863 6.09532C10.2965 5.22749 11.7035 5.22749 12.5713 6.09532Z" stroke="#C9C9C9" stroke-width="2" stroke-linecap="round" stroke-linejoin="round"/>
</svg>
