<svg width="22" height="22" viewBox="0 0 22 22" fill="none" xmlns="http://www.w3.org/2000/svg">
<path d="M15.4444 11C15.4444 13.4544 13.4544 15.4444 11 15.4444C8.54556 15.4444 6.55556 13.4544 6.55556 11C6.55556 8.54556 8.54556 6.55556 11 6.55556C13.4544 6.55556 15.4444 8.54556 15.4444 11ZM15.4444 11V12.6667C15.4444 14.2011 16.6878 15.4444 18.2222 15.4444C19.7567 15.4444 21 14.2011 21 12.6667V11C21 5.47667 16.5233 1 11 1C5.47667 1 1 5.47667 1 11C1 16.5233 5.47667 21 11 21C12.2767 21 13.5744 20.7578 14.8267 20.2389C15.5022 19.9589 16.1267 19.6078 16.7033 19.2067" stroke="#C9C9C9" stroke-width="2" stroke-linecap="round" stroke-linejoin="round"/>
</svg>
