<svg width="22" height="22" viewBox="0 0 22 22" fill="none" xmlns="http://www.w3.org/2000/svg">
<path d="M9.6175 12.3825C8.20371 10.9687 7.13794 9.38575 6.42983 7.77984C6.28 7.44029 6.36821 7.04273 6.63042 6.78052L7.62007 5.79208C8.43089 4.98126 8.43089 3.83452 7.72278 3.12642L6.30416 1.7078C5.36043 0.764067 3.83064 0.764067 2.88691 1.7078L2.09905 2.49565C1.20365 3.39105 0.830269 4.6828 1.07194 5.96366C1.66887 9.12112 3.50317 12.5783 6.46246 15.5375C9.42175 18.4968 12.8789 20.3311 16.0363 20.9281C17.3172 21.1697 18.6089 20.7963 19.5043 19.9009L20.291 19.1143C21.2347 18.1706 21.2347 16.6408 20.291 15.697L18.8736 14.2796C18.1655 13.5715 17.0175 13.5715 16.3106 14.2796L15.2195 15.372C14.9573 15.6342 14.5597 15.7224 14.2202 15.5726C12.6142 14.8633 11.0313 13.7963 9.6175 12.3825V12.3825Z" stroke="#C9C9C9" stroke-width="2" stroke-linecap="round" stroke-linejoin="round"/>
</svg>
