<svg width="20" height="15" viewBox="0 0 20 15" fill="none" xmlns="http://www.w3.org/2000/svg">
<path fill-rule="evenodd" clip-rule="evenodd" d="M19.654 2.41326C19.41 1.26826 18.54 0.424261 17.492 0.298261C15.012 0.00026089 12.502 -0.00173895 10.003 0.000261049C7.504 -0.000738951 4.993 0.00026089 2.513 0.298261C1.467 0.424261 0.597 1.26826 0.353 2.41326C0.00199991 4.04326 0 5.82226 0 7.50026C0 9.17826 5.96046e-08 10.9573 0.348 12.5873C0.593 13.7313 1.463 14.5763 2.51 14.7023C4.99 15.0003 7.5 15.0023 10 15.0003C12.499 15.0013 15.009 15.0003 17.488 14.7023C18.535 14.5763 19.405 13.7323 19.65 12.5873C19.999 10.9573 20 9.17826 20 7.50026C20 5.82226 20.003 4.04326 19.654 2.41326ZM8 11.0003V4.00026L14 7.51026L8 11.0003Z" fill="#FD0202"/>
</svg>
