<svg width="125" height="17" viewBox="0 0 125 17" fill="none" xmlns="http://www.w3.org/2000/svg">
<path d="M1.60156 9.55469L2.4541 8.74609L5.84668 13H7.62207L3.53516 7.80566L7.49902 3.85938H5.64453L1.60156 7.91992V0.317383H0.0722656V13H1.60156V9.55469ZM12.0781 13.1582C14.6006 13.1582 16.3057 11.3389 16.3057 8.42969C16.3057 5.51172 14.6006 3.70117 12.0781 3.70117C9.54688 3.70117 7.8418 5.51172 7.8418 8.42969C7.8418 11.3389 9.54688 13.1582 12.0781 13.1582ZM12.0781 11.8135C10.4609 11.8135 9.39746 10.583 9.39746 8.42969C9.39746 6.27637 10.4609 5.0459 12.0781 5.0459C13.6953 5.0459 14.75 6.27637 14.75 8.42969C14.75 10.583 13.6953 11.8135 12.0781 11.8135ZM17.6943 6.38184C17.6943 7.7002 18.5293 8.5 20.252 8.91309L21.7021 9.26465C22.748 9.51953 23.1084 9.89746 23.1084 10.5566C23.1084 11.3828 22.3438 11.9102 21.1045 11.9102C19.8652 11.9102 19.1621 11.4092 18.9775 10.3633H17.4482C17.624 12.0771 18.96 13.1582 21.1045 13.1582C23.1436 13.1582 24.6465 12.0332 24.6465 10.4424C24.6465 9.13281 23.9785 8.41211 22.1328 7.96387L20.6826 7.6123C19.6631 7.36621 19.1973 6.93555 19.1973 6.30273C19.1973 5.50293 19.9355 4.94922 21.0518 4.94922C22.1768 4.94922 22.8799 5.53809 22.9941 6.49609H24.4531C24.3916 4.87891 23.0557 3.70117 21.0518 3.70117C19.0742 3.70117 17.6943 4.81738 17.6943 6.38184ZM27.002 16.4189C28.6543 16.4189 29.4102 15.7773 30.1924 13.6416L33.7871 3.85938H32.1787L29.6475 11.4707H29.6211L27.0898 3.85938H25.4551L28.8301 13.0088L28.6191 13.6504C28.2676 14.7139 27.793 15.127 26.9404 15.127C26.7471 15.127 26.5098 15.1182 26.3428 15.083V16.3662C26.5098 16.4014 26.8174 16.4189 27.002 16.4189ZM34.9912 13H36.5205V7.26953C36.5205 6.00391 37.3994 5.05469 38.6123 5.05469C39.7461 5.05469 40.4844 5.77539 40.4844 6.87402V13H42.0137V7.19043C42.0137 5.95117 42.8662 5.05469 44.0791 5.05469C45.2832 5.05469 45.9775 5.79297 45.9775 7.04102V13H47.5068V6.68945C47.5068 4.87891 46.3379 3.70117 44.5273 3.70117C43.2441 3.70117 42.1719 4.35156 41.6621 5.44141H41.627C41.2314 4.33398 40.3086 3.70117 39.0605 3.70117C37.8301 3.70117 36.8984 4.35156 36.4678 5.31836H36.4326V3.85938H34.9912V13ZM49.2998 6.38184C49.2998 7.7002 50.1348 8.5 51.8574 8.91309L53.3076 9.26465C54.3535 9.51953 54.7139 9.89746 54.7139 10.5566C54.7139 11.3828 53.9492 11.9102 52.71 11.9102C51.4707 11.9102 50.7676 11.4092 50.583 10.3633H49.0537C49.2295 12.0771 50.5654 13.1582 52.71 13.1582C54.749 13.1582 56.252 12.0332 56.252 10.4424C56.252 9.13281 55.584 8.41211 53.7383 7.96387L52.2881 7.6123C51.2686 7.36621 50.8027 6.93555 50.8027 6.30273C50.8027 5.50293 51.541 4.94922 52.6572 4.94922C53.7822 4.94922 54.4854 5.53809 54.5996 6.49609H56.0586C55.9971 4.87891 54.6611 3.70117 52.6572 3.70117C50.6797 3.70117 49.2998 4.81738 49.2998 6.38184ZM57.9219 13H59.4512V7.67383C59.4512 6.0918 60.3916 5.05469 61.9121 5.05469C63.3447 5.05469 64.0742 5.9248 64.0742 7.375V13H65.6035V7.09375C65.6035 5.05469 64.3906 3.70117 62.3867 3.70117C60.998 3.70117 59.9961 4.29883 59.4863 5.31836H59.4512V0.317383H57.9219V13ZM70.2178 13.1582C71.4482 13.1582 72.6084 12.4727 73.1533 11.4268H73.1885V13H74.6387V6.68066C74.6387 4.86133 73.2852 3.70117 71.1406 3.70117C68.9785 3.70117 67.625 4.91406 67.5195 6.49609H68.9961C69.1895 5.59961 69.9277 5.0459 71.1055 5.0459C72.3711 5.0459 73.1094 5.71387 73.1094 6.83008V7.59473L70.4902 7.74414C68.3809 7.86719 67.1768 8.85156 67.1768 10.416C67.1768 12.0596 68.3984 13.1582 70.2178 13.1582ZM70.5605 11.8574C69.4619 11.8574 68.7324 11.2861 68.7324 10.416C68.7324 9.55469 69.4355 9.00977 70.666 8.93066L73.1094 8.78125V9.52832C73.1094 10.8467 72.002 11.8574 70.5605 11.8574ZM77.873 13.0879C78.4355 13.0879 78.875 12.6484 78.875 12.0859C78.875 11.5234 78.4355 11.084 77.873 11.084C77.3105 11.084 76.8711 11.5234 76.8711 12.0859C76.8711 12.6484 77.3105 13.0879 77.873 13.0879ZM84.4121 13.1582C86.9346 13.1582 88.6396 11.3389 88.6396 8.42969C88.6396 5.51172 86.9346 3.70117 84.4121 3.70117C81.8809 3.70117 80.1758 5.51172 80.1758 8.42969C80.1758 11.3389 81.8809 13.1582 84.4121 13.1582ZM84.4121 11.8135C82.7949 11.8135 81.7314 10.583 81.7314 8.42969C81.7314 6.27637 82.7949 5.0459 84.4121 5.0459C86.0293 5.0459 87.084 6.27637 87.084 8.42969C87.084 10.583 86.0293 11.8135 84.4121 11.8135ZM90.1865 13H91.7158V7.62109C91.7158 6.07422 92.6562 5.05469 94.0977 5.05469C95.5039 5.05469 96.1982 5.86328 96.1982 7.33984V13H97.7275V7.06738C97.7275 4.99316 96.5674 3.70117 94.5635 3.70117C93.1484 3.70117 92.1729 4.33398 91.6631 5.31836H91.6279V3.85938H90.1865V13ZM99.7578 13H101.287V0.317383H99.7578V13ZM104.196 2.2334C104.732 2.2334 105.154 1.80273 105.154 1.27539C105.154 0.739258 104.732 0.317383 104.196 0.317383C103.669 0.317383 103.238 0.739258 103.238 1.27539C103.238 1.80273 103.669 2.2334 104.196 2.2334ZM103.432 13H104.961V3.85938H103.432V13ZM107.026 13H108.556V7.62109C108.556 6.07422 109.496 5.05469 110.938 5.05469C112.344 5.05469 113.038 5.86328 113.038 7.33984V13H114.567V7.06738C114.567 4.99316 113.407 3.70117 111.403 3.70117C109.988 3.70117 109.013 4.33398 108.503 5.31836H108.468V3.85938H107.026V13ZM122.583 10.3809C122.328 11.2422 121.476 11.8311 120.315 11.8311C118.672 11.8311 117.644 10.6797 117.644 8.93066V8.84277H124.2V8.2627C124.2 5.49414 122.68 3.70117 120.21 3.70117C117.688 3.70117 116.07 5.62598 116.07 8.46484C116.07 11.3389 117.661 13.1582 120.28 13.1582C122.275 13.1582 123.822 11.9805 124.086 10.3809H122.583ZM120.184 5.02832C121.625 5.02832 122.583 6.11816 122.618 7.64746H117.652C117.749 6.12695 118.751 5.02832 120.184 5.02832Z" fill="url(#paint0_linear)"/>
<defs>
<linearGradient id="paint0_linear" x1="-1" y1="-2" x2="101.192" y2="56.0735" gradientUnits="userSpaceOnUse">
<stop stop-color="#0B6E8E"/>
<stop offset="0.572917" stop-color="#04BC94"/>
<stop offset="1" stop-color="#01FEB5"/>
</linearGradient>
</defs>
</svg>
