<svg width="28" height="16" viewBox="0 0 28 16" fill="none" xmlns="http://www.w3.org/2000/svg">
<path fill-rule="evenodd" clip-rule="evenodd" d="M3 0C1.34314 0 0 1.34314 0 3V13C0 14.6569 1.34314 16 3 16H25C26.6569 16 28 14.6569 28 13V3C28 1.34314 26.6569 0 25 0H3ZM3 1C1.89539 1 1 1.89539 1 3V13C1 14.1046 1.89539 15 3 15H25C26.1046 15 27 14.1046 27 13V3C27 1.89539 26.1046 1 25 1H3Z" fill="#999999"/>
<path d="M4.54927 10.7486V9.77134C4.87229 9.4538 5.17067 9.15816 5.44441 8.88441C5.55939 8.76944 5.67709 8.65173 5.79754 8.53129C5.91799 8.41084 6.03022 8.2986 6.13425 8.19458C6.23827 8.09056 6.33134 7.99749 6.41346 7.91536C6.49559 7.82777 6.55855 7.75933 6.60235 7.71006C6.68994 7.60603 6.76659 7.51296 6.83229 7.43084C6.90346 7.34872 6.95821 7.26933 6.99654 7.19268C7.04034 7.11056 7.07318 7.03117 7.09508 6.95453C7.11698 6.8724 7.12793 6.7848 7.12793 6.69173C7.12793 6.51106 7.05676 6.35503 6.91441 6.22363C6.77207 6.08676 6.57771 6.01832 6.33134 6.01832C6.08497 6.01832 5.89335 6.0895 5.75648 6.23184C5.61961 6.36872 5.52654 6.52475 5.47726 6.69994L4.5 6.29754C4.5438 6.14972 4.61497 5.99916 4.71352 5.84587C4.81207 5.6871 4.93799 5.54749 5.09128 5.42704C5.24458 5.30112 5.42525 5.19983 5.6333 5.12318C5.84682 5.04106 6.08497 5 6.34777 5C6.63246 5 6.88978 5.0438 7.11972 5.1314C7.34967 5.21352 7.54402 5.32849 7.70279 5.47631C7.86156 5.62413 7.98475 5.79933 8.07235 6.0019C8.15994 6.19899 8.20374 6.41251 8.20374 6.64246C8.20374 6.99285 8.11615 7.31587 7.94095 7.61151C7.77123 7.90168 7.56318 8.17268 7.31682 8.42453L6.61056 9.13078C6.42441 9.31693 6.21363 9.52497 5.97821 9.75492L6.01106 9.80419H8.28587V10.7486H4.54927Z" fill="#999999"/>
<path d="M11.3648 10.88C11.0035 10.88 10.6777 10.8061 10.3876 10.6583C10.0974 10.505 9.8483 10.2969 9.64025 10.0341C9.43768 9.77134 9.28165 9.46201 9.17215 9.10615C9.06265 8.74481 9.00791 8.35609 9.00791 7.94C9.00791 7.52391 9.06265 7.13793 9.17215 6.78207C9.28165 6.42073 9.43768 6.10866 9.64025 5.84587C9.8483 5.58307 10.0974 5.37777 10.3876 5.22994C10.6777 5.07665 11.0035 5 11.3648 5C11.7262 5 12.0519 5.07665 12.3421 5.22994C12.6323 5.37777 12.8786 5.58307 13.0812 5.84587C13.2892 6.10866 13.448 6.42073 13.5575 6.78207C13.667 7.13793 13.7218 7.52391 13.7218 7.94C13.7218 8.35609 13.667 8.74481 13.5575 9.10615C13.448 9.46201 13.2892 9.77134 13.0812 10.0341C12.8786 10.2969 12.6323 10.505 12.3421 10.6583C12.0519 10.8061 11.7262 10.88 11.3648 10.88ZM11.3648 9.86168C11.5619 9.86168 11.7399 9.81514 11.8986 9.72207C12.0574 9.62352 12.1915 9.48939 12.301 9.31966C12.416 9.14447 12.5009 8.93916 12.5556 8.70374C12.6158 8.46832 12.646 8.21374 12.646 7.94C12.646 7.66078 12.6158 7.4062 12.5556 7.17626C12.5009 6.94084 12.416 6.73827 12.301 6.56855C12.1915 6.39335 12.0574 6.25922 11.8986 6.16615C11.7399 6.0676 11.5619 6.01832 11.3648 6.01832C11.1623 6.01832 10.9816 6.0676 10.8228 6.16615C10.6641 6.25922 10.5299 6.39335 10.4204 6.56855C10.3109 6.73827 10.2261 6.94084 10.1658 7.17626C10.1111 7.4062 10.0837 7.66078 10.0837 7.94C10.0837 8.21374 10.1111 8.46832 10.1658 8.70374C10.2261 8.93916 10.3109 9.14447 10.4204 9.31966C10.5299 9.48939 10.6641 9.62352 10.8228 9.72207C10.9816 9.81514 11.1623 9.86168 11.3648 9.86168Z" fill="#999999"/>
<path d="M14.3816 10.7486V9.77134C14.7046 9.4538 15.003 9.15816 15.2767 8.88441C15.3917 8.76944 15.5094 8.65173 15.6298 8.53129C15.7503 8.41084 15.8625 8.2986 15.9665 8.19458C16.0706 8.09056 16.1636 7.99749 16.2458 7.91536C16.3279 7.82777 16.3908 7.75933 16.4346 7.71006C16.5222 7.60603 16.5989 7.51296 16.6646 7.43084C16.7358 7.34872 16.7905 7.26933 16.8288 7.19268C16.8726 7.11056 16.9055 7.03117 16.9274 6.95453C16.9493 6.8724 16.9602 6.7848 16.9602 6.69173C16.9602 6.51106 16.8891 6.35503 16.7467 6.22363C16.6044 6.08676 16.41 6.01832 16.1636 6.01832C15.9173 6.01832 15.7256 6.0895 15.5888 6.23184C15.4519 6.36872 15.3588 6.52475 15.3096 6.69994L14.3323 6.29754C14.3761 6.14972 14.4473 5.99916 14.5458 5.84587C14.6444 5.6871 14.7703 5.54749 14.9236 5.42704C15.0769 5.30112 15.2575 5.19983 15.4656 5.12318C15.6791 5.04106 15.9173 5 16.1801 5C16.4648 5 16.7221 5.0438 16.952 5.1314C17.182 5.21352 17.3763 5.32849 17.5351 5.47631C17.6939 5.62413 17.817 5.79933 17.9046 6.0019C17.9922 6.19899 18.036 6.41251 18.036 6.64246C18.036 6.99285 17.9484 7.31587 17.7732 7.61151C17.6035 7.90168 17.3955 8.17268 17.1491 8.42453L16.4429 9.13078C16.2567 9.31693 16.0459 9.52497 15.8105 9.75492L15.8434 9.80419H18.1182V10.7486H14.3816Z" fill="#999999"/>
<path d="M21.1971 10.88C20.8358 10.88 20.51 10.8061 20.2199 10.6583C19.9297 10.505 19.6806 10.2969 19.4725 10.0341C19.27 9.77134 19.1139 9.46201 19.0044 9.10615C18.8949 8.74481 18.8402 8.35609 18.8402 7.94C18.8402 7.52391 18.8949 7.13793 19.0044 6.78207C19.1139 6.42073 19.27 6.10866 19.4725 5.84587C19.6806 5.58307 19.9297 5.37777 20.2199 5.22994C20.51 5.07665 20.8358 5 21.1971 5C21.5585 5 21.8842 5.07665 22.1744 5.22994C22.4646 5.37777 22.7109 5.58307 22.9135 5.84587C23.1215 6.10866 23.2803 6.42073 23.3898 6.78207C23.4993 7.13793 23.5541 7.52391 23.5541 7.94C23.5541 8.35609 23.4993 8.74481 23.3898 9.10615C23.2803 9.46201 23.1215 9.77134 22.9135 10.0341C22.7109 10.2969 22.4646 10.505 22.1744 10.6583C21.8842 10.8061 21.5585 10.88 21.1971 10.88ZM21.1971 9.86168C21.3942 9.86168 21.5722 9.81514 21.7309 9.72207C21.8897 9.62352 22.0238 9.48939 22.1333 9.31966C22.2483 9.14447 22.3332 8.93916 22.3879 8.70374C22.4481 8.46832 22.4782 8.21374 22.4782 7.94C22.4782 7.66078 22.4481 7.4062 22.3879 7.17626C22.3332 6.94084 22.2483 6.73827 22.1333 6.56855C22.0238 6.39335 21.8897 6.25922 21.7309 6.16615C21.5722 6.0676 21.3942 6.01832 21.1971 6.01832C20.9946 6.01832 20.8139 6.0676 20.6551 6.16615C20.4963 6.25922 20.3622 6.39335 20.2527 6.56855C20.1432 6.73827 20.0584 6.94084 19.9981 7.17626C19.9434 7.4062 19.916 7.66078 19.916 7.94C19.916 8.21374 19.9434 8.46832 19.9981 8.70374C20.0584 8.93916 20.1432 9.14447 20.2527 9.31966C20.3622 9.48939 20.4963 9.62352 20.6551 9.72207C20.8139 9.81514 20.9946 9.86168 21.1971 9.86168Z" fill="#999999"/>
</svg>
