<svg width="77" height="16" viewBox="0 0 77 16" fill="none" xmlns="http://www.w3.org/2000/svg">
<path d="M0 0.216441H2.21444V3.79604L2.0792 4.9615H2.21444C2.41729 4.61741 2.73283 4.32327 3.16107 4.07908C3.5893 3.83489 4.11896 3.7128 4.75005 3.7128C5.27971 3.7128 5.7812 3.82379 6.25452 4.04579C6.7391 4.25668 7.1617 4.55637 7.52232 4.94485C7.89421 5.32223 8.18722 5.77731 8.40134 6.31009C8.61545 6.84287 8.72251 7.4256 8.72251 8.05827C8.72251 8.69095 8.61545 9.27367 8.40134 9.80645C8.18722 10.3392 7.89421 10.7999 7.52232 11.1883C7.1617 11.5657 6.7391 11.8654 6.25452 12.0874C5.7812 12.2983 5.27971 12.4037 4.75005 12.4037C4.11896 12.4037 3.5893 12.2817 3.16107 12.0375C2.73283 11.7933 2.41729 11.4991 2.21444 11.155H2.0792V12.1374H0V0.216441ZM4.29364 10.3892C4.58664 10.3892 4.86275 10.3337 5.12194 10.2227C5.39241 10.1117 5.62906 9.9563 5.83191 9.7565C6.03476 9.55671 6.19817 9.31252 6.32213 9.02393C6.44609 8.73534 6.50808 8.41346 6.50808 8.05827C6.50808 7.70309 6.44609 7.3812 6.32213 7.09261C6.19817 6.80402 6.03476 6.55983 5.83191 6.36004C5.62906 6.16025 5.39241 6.00486 5.12194 5.89386C4.86275 5.78286 4.58664 5.72737 4.29364 5.72737C4.00064 5.72737 3.7189 5.78286 3.44844 5.89386C3.18924 5.99376 2.95822 6.1436 2.75537 6.34339C2.55252 6.54318 2.38911 6.78737 2.26515 7.07596C2.14119 7.36455 2.0792 7.69199 2.0792 8.05827C2.0792 8.42456 2.14119 8.75199 2.26515 9.04058C2.38911 9.32917 2.55252 9.57336 2.75537 9.77315C2.95822 9.97294 3.18924 10.1283 3.44844 10.2393C3.7189 10.3392 4.00064 10.3892 4.29364 10.3892Z" fill="black" fill-opacity="0.4"/>
<path d="M15.7838 11.0718H15.6486C15.3894 11.4825 15.04 11.8099 14.6005 12.0541C14.161 12.2872 13.6595 12.4037 13.0961 12.4037C12.048 12.4037 11.2648 12.0874 10.7464 11.4547C10.2393 10.8221 9.9857 9.97849 9.9857 8.92404V3.97919H12.2001V8.65765C12.2001 9.24592 12.3297 9.68436 12.5889 9.97294C12.8594 10.2504 13.2482 10.3892 13.7553 10.3892C14.0596 10.3892 14.3244 10.3281 14.5498 10.206C14.7865 10.0728 14.9837 9.9008 15.1414 9.68991C15.3105 9.46791 15.4345 9.21262 15.5133 8.92404C15.6035 8.62435 15.6486 8.30801 15.6486 7.97503V3.97919H17.863V12.1374H15.7838V11.0718Z" fill="black" fill-opacity="0.4"/>
<path d="M23.4977 16C22.9117 16 22.3877 15.9223 21.9257 15.7669C21.4749 15.6226 21.0805 15.4284 20.7424 15.1842C20.4043 14.9511 20.1226 14.6903 19.8972 14.4017C19.6718 14.1131 19.5084 13.8245 19.407 13.5359L21.52 12.7034C21.6777 13.1363 21.9369 13.4693 22.2976 13.7024C22.6582 13.9466 23.0582 14.0687 23.4977 14.0687C24.1965 14.0687 24.7487 13.8522 25.1544 13.4194C25.56 12.9976 25.7629 12.4037 25.7629 11.6379V11.0718H25.6277C25.3685 11.427 25.0248 11.71 24.5965 11.9209C24.1795 12.1207 23.6837 12.2206 23.109 12.2206C22.6131 12.2206 22.1285 12.1207 21.6552 11.9209C21.1932 11.7211 20.7818 11.4381 20.4212 11.0718C20.0606 10.6944 19.7676 10.2449 19.5422 9.7232C19.3168 9.20153 19.2041 8.6188 19.2041 7.97503C19.2041 7.33125 19.3168 6.74853 19.5422 6.22685C19.7676 5.69407 20.0606 5.24454 20.4212 4.87825C20.7818 4.50087 21.1932 4.21228 21.6552 4.01249C22.1285 3.81269 22.6131 3.7128 23.109 3.7128C23.6837 3.7128 24.1795 3.81824 24.5965 4.02914C25.0248 4.22893 25.3685 4.50642 25.6277 4.8616H25.7629V3.97919H27.8759V11.5546C27.8759 12.2428 27.7689 12.8588 27.5547 13.4027C27.3406 13.9577 27.042 14.4239 26.6588 14.8012C26.2757 15.1897 25.8136 15.4839 25.2727 15.6837C24.743 15.8946 24.1514 16 23.4977 16ZM23.5823 10.256C23.8527 10.256 24.1176 10.206 24.3768 10.1061C24.6472 10.0062 24.8839 9.86195 25.0867 9.67326C25.2896 9.47346 25.453 9.23482 25.577 8.95733C25.7009 8.66875 25.7629 8.34131 25.7629 7.97503C25.7629 7.60874 25.7009 7.2813 25.577 6.99272C25.453 6.70413 25.2896 6.46549 25.0867 6.27679C24.8839 6.077 24.6472 5.92716 24.3768 5.82726C24.1176 5.72737 23.8527 5.67742 23.5823 5.67742C23.3118 5.67742 23.047 5.72737 22.7878 5.82726C22.5286 5.92716 22.2976 6.077 22.0947 6.27679C21.8919 6.47659 21.7285 6.72078 21.6045 7.00936C21.4805 7.28685 21.4185 7.60874 21.4185 7.97503C21.4185 8.34131 21.4805 8.66875 21.6045 8.95733C21.7285 9.23482 21.8919 9.47346 22.0947 9.67326C22.2976 9.86195 22.5286 10.0062 22.7878 10.1061C23.047 10.206 23.3118 10.256 23.5823 10.256Z" fill="black" fill-opacity="0.4"/>
<path d="M30.9978 2.79709C30.8062 2.79709 30.6202 2.76379 30.4399 2.69719C30.2709 2.61949 30.1187 2.5196 29.9835 2.3975C29.8595 2.26431 29.7581 2.11446 29.6792 1.94797C29.6116 1.78148 29.5778 1.59833 29.5778 1.39854C29.5778 1.19875 29.6116 1.01561 29.6792 0.849115C29.7581 0.682622 29.8595 0.538328 29.9835 0.416233C30.1187 0.283039 30.2709 0.183142 30.4399 0.116545C30.6202 0.0388483 30.8062 0 30.9978 0C31.3922 0 31.7303 0.138744 32.012 0.416233C32.2937 0.682622 32.4346 1.01006 32.4346 1.39854C32.4346 1.78703 32.2937 2.12001 32.012 2.3975C31.7303 2.66389 31.3922 2.79709 30.9978 2.79709ZM29.899 12.1374V3.97919H32.1134V12.1374H29.899Z" fill="black" fill-opacity="0.4"/>
<path d="M36.2176 5.04474H36.3528C36.612 4.63406 36.9613 4.31217 37.4008 4.07908C37.8403 3.83489 38.3418 3.7128 38.9053 3.7128C39.4237 3.7128 39.8801 3.79605 40.2745 3.96254C40.669 4.12903 40.9901 4.36767 41.2381 4.67846C41.4973 4.97815 41.6888 5.34443 41.8128 5.77731C41.948 6.1991 42.0157 6.67083 42.0157 7.19251V12.1374H39.8012V7.4589C39.8012 6.87062 39.666 6.43774 39.3955 6.16025C39.1363 5.87166 38.7532 5.72737 38.246 5.72737C37.9418 5.72737 37.6713 5.79396 37.4347 5.92716C37.2093 6.04925 37.012 6.2213 36.843 6.44329C36.6852 6.65418 36.5613 6.90947 36.4711 7.20916C36.3922 7.49775 36.3528 7.80853 36.3528 8.14152V12.1374H34.1383V3.97919H36.2176V5.04474Z" fill="black" fill-opacity="0.4"/>
<path d="M45.1804 12.2373C44.7747 12.2373 44.4254 12.0985 44.1324 11.821C43.8506 11.5324 43.7098 11.1883 43.7098 10.7888C43.7098 10.3892 43.8506 10.0506 44.1324 9.77315C44.4254 9.49566 44.7747 9.35692 45.1804 9.35692C45.5861 9.35692 45.9298 9.49566 46.2116 9.77315C46.4933 10.0506 46.6342 10.3892 46.6342 10.7888C46.6342 11.1883 46.4933 11.5324 46.2116 11.821C45.9298 12.0985 45.5861 12.2373 45.1804 12.2373Z" fill="black" fill-opacity="0.4"/>
<path d="M51.6641 12.4037C51.1231 12.4037 50.6385 12.3371 50.2103 12.204C49.7933 12.0708 49.4271 11.8987 49.1115 11.6878C48.8073 11.4658 48.5481 11.2161 48.334 10.9386C48.1198 10.65 47.9564 10.3614 47.8437 10.0728L49.8215 9.24037C50.0131 9.66216 50.2667 9.97849 50.5822 10.1894C50.909 10.3892 51.2696 10.4891 51.6641 10.4891C52.0698 10.4891 52.3909 10.4169 52.6276 10.2726C52.8643 10.1283 52.9826 9.9563 52.9826 9.7565C52.9826 9.53451 52.8812 9.35692 52.6783 9.22372C52.4867 9.07943 52.1487 8.95179 51.6641 8.84079L50.4977 8.59105C50.2385 8.53555 49.968 8.44676 49.6863 8.32466C49.4158 8.20257 49.1679 8.04717 48.9425 7.85848C48.7171 7.66979 48.5312 7.44225 48.3847 7.17586C48.2382 6.90947 48.1649 6.59868 48.1649 6.2435C48.1649 5.84391 48.2494 5.48873 48.4185 5.17794C48.5988 4.86715 48.8411 4.60631 49.1454 4.39542C49.4496 4.17343 49.8046 4.00694 50.2103 3.89594C50.6273 3.77385 51.0724 3.7128 51.5457 3.7128C52.3346 3.7128 53.0389 3.86819 53.6587 4.17898C54.2786 4.47867 54.735 4.9615 55.028 5.62747L53.1178 6.39334C52.96 6.07145 52.729 5.83836 52.4247 5.69407C52.1205 5.54977 51.8162 5.47763 51.5119 5.47763C51.1964 5.47763 50.9203 5.54422 50.6836 5.67742C50.447 5.79951 50.3286 5.96046 50.3286 6.16025C50.3286 6.34894 50.4244 6.49879 50.616 6.60978C50.8189 6.72078 51.0893 6.82067 51.4274 6.90947L52.6952 7.20916C53.5404 7.40895 54.1659 7.73083 54.5716 8.17482C54.9885 8.6077 55.197 9.12383 55.197 9.7232C55.197 10.0784 55.1125 10.4169 54.9435 10.7388C54.7744 11.0607 54.5321 11.3493 54.2166 11.6046C53.9123 11.8488 53.5404 12.043 53.1009 12.1873C52.6727 12.3316 52.1937 12.4037 51.6641 12.4037Z" fill="black" fill-opacity="0.4"/>
<path d="M60.5604 3.7128C61.2027 3.7128 61.7887 3.82379 62.3184 4.04579C62.8593 4.25668 63.3214 4.55637 63.7045 4.94485C64.099 5.32223 64.4032 5.77731 64.6173 6.31009C64.8427 6.84287 64.9554 7.4256 64.9554 8.05827C64.9554 8.69095 64.8427 9.27367 64.6173 9.80645C64.4032 10.3392 64.099 10.7999 63.7045 11.1883C63.3214 11.5657 62.8593 11.8654 62.3184 12.0874C61.7887 12.2983 61.2027 12.4037 60.5604 12.4037C59.918 12.4037 59.3264 12.2983 58.7854 12.0874C58.2558 11.8654 57.7937 11.5657 57.3993 11.1883C57.0161 10.7999 56.7119 10.3392 56.4865 9.80645C56.2724 9.27367 56.1653 8.69095 56.1653 8.05827C56.1653 7.4256 56.2724 6.84287 56.4865 6.31009C56.7119 5.77731 57.0161 5.32223 57.3993 4.94485C57.7937 4.55637 58.2558 4.25668 58.7854 4.04579C59.3264 3.82379 59.918 3.7128 60.5604 3.7128ZM60.5604 10.3892C60.8421 10.3892 61.1126 10.3392 61.3718 10.2393C61.6422 10.1283 61.8789 9.97294 62.0817 9.77315C62.2846 9.57336 62.4424 9.32917 62.5551 9.04058C62.679 8.75199 62.741 8.42456 62.741 8.05827C62.741 7.69199 62.679 7.36455 62.5551 7.07596C62.4424 6.78737 62.2846 6.54318 62.0817 6.34339C61.8789 6.1436 61.6422 5.99376 61.3718 5.89386C61.1126 5.78286 60.8421 5.72737 60.5604 5.72737C60.2674 5.72737 59.9913 5.78286 59.7321 5.89386C59.4729 5.99376 59.2419 6.1436 59.039 6.34339C58.8362 6.54318 58.6728 6.78737 58.5488 7.07596C58.4361 7.36455 58.3797 7.69199 58.3797 8.05827C58.3797 8.42456 58.4361 8.75199 58.5488 9.04058C58.6728 9.32917 58.8362 9.57336 59.039 9.77315C59.2419 9.97294 59.4729 10.1283 59.7321 10.2393C59.9913 10.3392 60.2674 10.3892 60.5604 10.3892Z" fill="black" fill-opacity="0.4"/>
<path d="M72.419 5.84391H69.2917V12.1374H67.0773V5.84391H65.5897V3.97919H67.0773V3.18002C67.0773 2.68054 67.1505 2.24211 67.2971 1.86472C67.4548 1.47624 67.6746 1.15435 67.9563 0.899064C68.238 0.632674 68.5705 0.432882 68.9537 0.299688C69.3368 0.155394 69.7594 0.0832466 70.2215 0.0832466C70.4468 0.0832466 70.6272 0.0943459 70.7624 0.116545C70.8976 0.138744 71.0272 0.172043 71.1512 0.216441L71.0159 2.26431C70.9371 2.23101 70.8469 2.20326 70.7455 2.18106C70.6441 2.15886 70.5145 2.14776 70.3567 2.14776C70.0299 2.14776 69.7707 2.25321 69.5791 2.4641C69.3875 2.67499 69.2917 2.96358 69.2917 3.32986V3.97919H72.419V1.48179H74.6334V3.97919H76.6619V5.84391H74.6334V9.00728C74.6334 9.19598 74.6503 9.37357 74.6841 9.54006C74.7292 9.69545 74.8081 9.82865 74.9208 9.93964C75.0786 10.1172 75.304 10.206 75.597 10.206C75.7885 10.206 75.9407 10.1894 76.0534 10.1561C76.1661 10.1117 76.2731 10.0562 76.3745 9.98959L77 11.9043C76.7408 12.0264 76.4591 12.1152 76.1548 12.1707C75.8618 12.2373 75.535 12.2705 75.1744 12.2705C74.7574 12.2705 74.3799 12.2095 74.0418 12.0874C73.715 11.9542 73.4389 11.7766 73.2135 11.5546C72.6838 11.0552 72.419 10.3448 72.419 9.42352V5.84391Z" fill="black" fill-opacity="0.4"/>
</svg>
