<svg width="78" height="15" viewBox="0 0 78 15" fill="none" xmlns="http://www.w3.org/2000/svg">
<path d="M8.99316 10.1943C8.99316 7.94434 7.29688 6.37109 4.91504 6.37109H1.90039V2.74121H7.72754V1.31738H0.318359V14H4.93262C7.31445 14 8.99316 12.4355 8.99316 10.1943ZM1.90039 12.5762V7.79492H4.51953C6.33008 7.79492 7.36719 8.65625 7.36719 10.1943C7.36719 11.7236 6.33887 12.5762 4.51953 12.5762H1.90039ZM13.6338 14.1582C14.8643 14.1582 16.0244 13.4727 16.5693 12.4268H16.6045V14H18.0547V7.68066C18.0547 5.86133 16.7012 4.70117 14.5566 4.70117C12.3945 4.70117 11.041 5.91406 10.9355 7.49609H12.4121C12.6055 6.59961 13.3438 6.0459 14.5215 6.0459C15.7871 6.0459 16.5254 6.71387 16.5254 7.83008V8.59473L13.9062 8.74414C11.7969 8.86719 10.5928 9.85156 10.5928 11.416C10.5928 13.0596 11.8145 14.1582 13.6338 14.1582ZM13.9766 12.8574C12.8779 12.8574 12.1484 12.2861 12.1484 11.416C12.1484 10.5547 12.8516 10.0098 14.082 9.93066L16.5254 9.78125V10.5283C16.5254 11.8467 15.418 12.8574 13.9766 12.8574ZM21.1924 0.904297C21.1924 2.52148 22.3438 3.62891 24.0225 3.62891C25.7012 3.62891 26.8525 2.52148 26.8525 0.904297H25.7275C25.7275 1.92383 25.0684 2.72363 24.0225 2.72363C22.9766 2.72363 22.3174 1.92383 22.3174 0.904297H21.1924ZM21.6758 14L26.2285 7.20605H26.2988V14H27.8281V4.85938H26.3164L21.7637 11.6533H21.6934V4.85938H20.1641V14H21.6758ZM32.4336 9.96582L32.7148 6.11621H35.791V14H37.3203V4.85938H31.335L30.9834 9.93066C30.8691 11.6094 30.5264 12.6729 29.6211 12.6729C29.4014 12.6729 29.2344 12.6289 29.1553 12.6025V13.9824C29.2607 14.0264 29.4365 14.0791 29.7002 14.0791C31.625 14.0791 32.249 12.4883 32.4336 9.96582ZM42.1631 14.1582C43.3936 14.1582 44.5537 13.4727 45.0986 12.4268H45.1338V14H46.584V7.68066C46.584 5.86133 45.2305 4.70117 43.0859 4.70117C40.9238 4.70117 39.5703 5.91406 39.4648 7.49609H40.9414C41.1348 6.59961 41.873 6.0459 43.0508 6.0459C44.3164 6.0459 45.0547 6.71387 45.0547 7.83008V8.59473L42.4355 8.74414C40.3262 8.86719 39.1221 9.85156 39.1221 11.416C39.1221 13.0596 40.3438 14.1582 42.1631 14.1582ZM42.5059 12.8574C41.4072 12.8574 40.6777 12.2861 40.6777 11.416C40.6777 10.5547 41.3809 10.0098 42.6113 9.93066L45.0547 9.78125V10.5283C45.0547 11.8467 43.9473 12.8574 42.5059 12.8574ZM54.6963 14H56.2256V4.85938H54.6963V8.62988H50.2227V4.85938H48.6934V14H50.2227V9.88672H54.6963V14ZM66.2012 14H67.7129V4.85938H66.2012V14ZM58.3789 14H61.6221C63.7139 14 65.0586 12.7959 65.0586 10.8887C65.0586 8.98145 63.7139 7.77734 61.6221 7.77734H59.9082V4.85938H58.3789V14ZM61.5957 9.03418C62.7734 9.03418 63.5469 9.76367 63.5469 10.8887C63.5469 12.0049 62.7822 12.7432 61.5957 12.7432H59.9082V9.03418H61.5957ZM77.46 7.85645C77.2666 6.21289 75.9043 4.70117 73.6191 4.70117C71.0967 4.70117 69.418 6.54688 69.418 9.42969C69.418 12.374 71.1055 14.1582 73.6367 14.1582C75.7109 14.1582 77.2402 12.875 77.4775 11.0557H75.9746C75.7109 12.1543 74.8936 12.8135 73.6455 12.8135C72.0635 12.8135 70.9736 11.5566 70.9736 9.42969C70.9736 7.35547 72.0459 6.0459 73.6279 6.0459C74.9727 6.0459 75.7461 6.86328 75.9658 7.85645H77.46Z" fill="#666666"/>
</svg>
