<svg width="83" height="16" viewBox="0 0 83 16" fill="none" xmlns="http://www.w3.org/2000/svg">
<path d="M8.99316 9.19434C8.99316 6.94434 7.29688 5.37109 4.91504 5.37109H1.90039V1.74121H7.72754V0.317383H0.318359V13H4.93262C7.31445 13 8.99316 11.4355 8.99316 9.19434ZM1.90039 11.5762V6.79492H4.51953C6.33008 6.79492 7.36719 7.65625 7.36719 9.19434C7.36719 10.7236 6.33887 11.5762 4.51953 11.5762H1.90039ZM11.9814 2.2334C12.5176 2.2334 12.9395 1.80273 12.9395 1.27539C12.9395 0.739258 12.5176 0.317383 11.9814 0.317383C11.4541 0.317383 11.0234 0.739258 11.0234 1.27539C11.0234 1.80273 11.4541 2.2334 11.9814 2.2334ZM11.2168 13H12.7461V3.85938H11.2168V13ZM18.0283 13.1582C20.1729 13.1582 21.5967 12.0156 21.5967 10.3281C21.5967 9.2998 20.9727 8.54395 19.7686 8.28027V8.20996C20.7178 7.99023 21.3418 7.14648 21.3418 6.19727C21.3418 4.71191 20.208 3.70117 18.125 3.70117C16.1914 3.70117 14.873 4.65918 14.6797 6.1709H16.165C16.2881 5.44141 17.0439 4.97559 18.125 4.97559C19.3027 4.97559 19.8477 5.53809 19.8477 6.32031C19.8477 7.24316 19.2324 7.7002 18.0283 7.7002H16.6572V8.94824H18.0283C19.4082 8.94824 20.0938 9.39648 20.0938 10.3984C20.0938 11.2686 19.3555 11.8926 18.0283 11.8926C16.8945 11.8926 16.1387 11.4268 15.9629 10.627H14.416C14.5742 12.1738 16.0244 13.1582 18.0283 13.1582ZM33.7256 3.85938H26.3076V5.11621H29.252V13H30.7812V5.11621H33.7256V3.85938ZM35.9141 16.4189C37.5664 16.4189 38.3223 15.7773 39.1045 13.6416L42.6992 3.85938H41.0908L38.5596 11.4707H38.5332L36.002 3.85938H34.3672L37.7422 13.0088L37.5312 13.6504C37.1797 14.7139 36.7051 15.127 35.8525 15.127C35.6592 15.127 35.4219 15.1182 35.2549 15.083V16.3662C35.4219 16.4014 35.7295 16.4189 35.9141 16.4189ZM48.5176 3.70117C47.1904 3.70117 46.127 4.37793 45.5645 5.40625H45.5293V3.85938H44.0791V16.0498H45.6084V11.5146H45.6436C46.1885 12.5166 47.2432 13.1582 48.5527 13.1582C50.8555 13.1582 52.4287 11.2949 52.4287 8.42969C52.4287 5.56445 50.8467 3.70117 48.5176 3.70117ZM48.2188 11.8135C46.6543 11.8135 45.5996 10.4688 45.5996 8.42969C45.5996 6.39941 46.6543 5.0459 48.2188 5.0459C49.8447 5.0459 50.8643 6.36426 50.8643 8.42969C50.8643 10.5039 49.8447 11.8135 48.2188 11.8135ZM56.8232 13.1582C58.0537 13.1582 59.2139 12.4727 59.7588 11.4268H59.7939V13H61.2441V6.68066C61.2441 4.86133 59.8906 3.70117 57.7461 3.70117C55.584 3.70117 54.2305 4.91406 54.125 6.49609H55.6016C55.7949 5.59961 56.5332 5.0459 57.7109 5.0459C58.9766 5.0459 59.7148 5.71387 59.7148 6.83008V7.59473L57.0957 7.74414C54.9863 7.86719 53.7822 8.85156 53.7822 10.416C53.7822 12.0596 55.0039 13.1582 56.8232 13.1582ZM57.166 11.8574C56.0674 11.8574 55.3379 11.2861 55.3379 10.416C55.3379 9.55469 56.041 9.00977 57.2715 8.93066L59.7148 8.78125V9.52832C59.7148 10.8467 58.6074 11.8574 57.166 11.8574ZM65.8145 8.96582L66.0957 5.11621H69.1719V13H70.7012V3.85938H64.7158L64.3643 8.93066C64.25 10.6094 63.9072 11.6729 63.002 11.6729C62.7822 11.6729 62.6152 11.6289 62.5361 11.6025V12.9824C62.6416 13.0264 62.8174 13.0791 63.0811 13.0791C65.0059 13.0791 65.6299 11.4883 65.8145 8.96582ZM80.6855 13H82.1973V3.85938H80.6855V13ZM72.8633 13H76.1064C78.1982 13 79.543 11.7959 79.543 9.88867C79.543 7.98145 78.1982 6.77734 76.1064 6.77734H74.3926V3.85938H72.8633V13ZM76.0801 8.03418C77.2578 8.03418 78.0312 8.76367 78.0312 9.88867C78.0312 11.0049 77.2666 11.7432 76.0801 11.7432H74.3926V8.03418H76.0801Z" fill="#666666"/>
</svg>
