<svg width="87" height="16" viewBox="0 0 87 16" fill="none" xmlns="http://www.w3.org/2000/svg">
<path d="M10.4434 13V0.317383H8.86133V5.80176H1.90039V0.317383H0.318359V13H1.90039V7.22559H8.86133V13H10.4434ZM13.4141 14.0898H15.3916V16.0498H16.8418V14.0898H18.8105V13H16.8418V12.9297L20.2695 3.85938H18.6523L16.1826 11.04H16.0508L13.5811 3.85938H11.9639L15.3916 12.9561V13H13.4141V14.0898ZM28.8916 6.85645C28.6982 5.21289 27.3359 3.70117 25.0508 3.70117C22.5283 3.70117 20.8496 5.54688 20.8496 8.42969C20.8496 11.374 22.5371 13.1582 25.0684 13.1582C27.1426 13.1582 28.6719 11.875 28.9092 10.0557H27.4062C27.1426 11.1543 26.3252 11.8135 25.0771 11.8135C23.4951 11.8135 22.4053 10.5566 22.4053 8.42969C22.4053 6.35547 23.4775 5.0459 25.0596 5.0459C26.4043 5.0459 27.1777 5.86328 27.3975 6.85645H28.8916ZM32.082 8.60547L36.0107 13H37.2236V15.5049H38.6914V11.7256H36.8193L33.6025 8.18359L37.8564 3.85938H35.9668L32.082 7.90234H32.0117V3.85938H30.4824V13H32.0117V8.60547H32.082ZM42.6201 13.1582C43.8506 13.1582 45.0107 12.4727 45.5557 11.4268H45.5908V13H47.041V6.68066C47.041 4.86133 45.6875 3.70117 43.543 3.70117C41.3809 3.70117 40.0273 4.91406 39.9219 6.49609H41.3984C41.5918 5.59961 42.3301 5.0459 43.5078 5.0459C44.7734 5.0459 45.5117 5.71387 45.5117 6.83008V7.59473L42.8926 7.74414C40.7832 7.86719 39.5791 8.85156 39.5791 10.416C39.5791 12.0596 40.8008 13.1582 42.6201 13.1582ZM42.9629 11.8574C41.8643 11.8574 41.1348 11.2861 41.1348 10.416C41.1348 9.55469 41.8379 9.00977 43.0684 8.93066L45.5117 8.78125V9.52832C45.5117 10.8467 44.4043 11.8574 42.9629 11.8574ZM49.9238 16.4189C51.5762 16.4189 52.332 15.7773 53.1143 13.6416L56.709 3.85938H55.1006L52.5693 11.4707H52.543L50.0117 3.85938H48.377L51.752 13.0088L51.541 13.6504C51.1895 14.7139 50.7148 15.127 49.8623 15.127C49.6689 15.127 49.4316 15.1182 49.2646 15.083V16.3662C49.4316 16.4014 49.7393 16.4189 49.9238 16.4189ZM60.0137 8.96582L60.2949 5.11621H63.3711V13H64.9004V3.85938H58.915L58.5635 8.93066C58.4492 10.6094 58.1064 11.6729 57.2012 11.6729C56.9814 11.6729 56.8145 11.6289 56.7354 11.6025V12.9824C56.8408 13.0264 57.0166 13.0791 57.2803 13.0791C59.2051 13.0791 59.8291 11.4883 60.0137 8.96582ZM74.8848 13H76.3965V3.85938H74.8848V13ZM67.0625 13H70.3057C72.3975 13 73.7422 11.7959 73.7422 9.88867C73.7422 7.98145 72.3975 6.77734 70.3057 6.77734H68.5918V3.85938H67.0625V13ZM70.2793 8.03418C71.457 8.03418 72.2305 8.76367 72.2305 9.88867C72.2305 11.0049 71.4658 11.7432 70.2793 11.7432H68.5918V8.03418H70.2793ZM80.1406 8.60547L84.0693 13H85.2822V15.5049H86.75V11.7256H84.8779L81.6611 8.18359L85.915 3.85938H84.0254L80.1406 7.90234H80.0703V3.85938H78.541V13H80.0703V8.60547H80.1406Z" fill="#666666"/>
</svg>
